<?xml version="1.0" encoding="utf-8"?>
<!-- Generator: Adobe Illustrator 24.1.2, SVG Export Plug-In . SVG Version: 6.00 Build 0)  -->
<svg version="1.1" id="layer" xmlns="http://www.w3.org/2000/svg" xmlns:xlink="http://www.w3.org/1999/xlink" x="0px" y="0px"
	 viewBox="0 0 652 652" style="enable-background:new 0 0 652 652;" xml:space="preserve">
<style type="text/css">
	.st0{fill:url(#SVGID_1_);}
	.st1{fill:#009B43;}
	.st2{fill:#FFFFFF;}
	.st3{fill:#231815;}
	.st4{fill:none;}
	.st5{clip-path:url(#SVGID_3_);}
	.st6{fill:url(#SVGID_4_);}
	.st7{fill:url(#SVGID_5_);}
	.st8{fill:#D9D9D9;}
</style>
<g>
	<g>
		
			<radialGradient id="SVGID_1_" cx="-1517.1835" cy="-9363.3936" r="467.7621" gradientTransform="matrix(0.2804 0 0 -0.2804 553.0057 -2324.1665)" gradientUnits="userSpaceOnUse">
			<stop  offset="0.1989" style="stop-color:#F7F7F7"/>
			<stop  offset="0.7099" style="stop-color:#D6D6D7"/>
			<stop  offset="1" style="stop-color:#C8C9CA"/>
		</radialGradient>
		<path class="st0" d="M147.4,391.9c-39.1,0-70.8-31.7-70.8-70.8s31.7-70.8,70.8-70.8s70.8,31.7,70.8,70.8S186.5,391.9,147.4,391.9z
			"/>
	</g>
	<g>
		<g>
			<path class="st1" d="M151.9,259.1c0.4,1,1.5,0.7,2.2,1.4c0.4-0.1,0.8,0.5,1.3,0.4c0.6,0.3,1.3,0.2,1.8,0.6
				c1.7,0.2,3.6,0.1,5.2,0.6l0.1-0.1c-0.3-0.4-0.6-1.1-1.2-1.3c-0.5-0.5-6.6-2.2-6.6-2.2l-2.3-1.1c-0.5,0-0.7-0.6-1.2-0.4
				c-0.3,0-0.6-0.2-0.5-0.5c0.9,0.1,1.9,0.3,2.8,0.8c0.3-0.4-0.3-0.8-0.3-1.1c0-0.2,0.2-0.2,0.3-0.3l0.6,0.6c0.5,1.6,2.2,1.7,3.6,2
				c0,0,0.8,0.3,2.1,0.6c0.4,0,0.6,0.8,1,0.4c-0.2-1.9-2.2-1.4-3.2-2.5l-1.4-1.1l-1.7-0.9c-2.1-0.6-4.5-0.1-6.5,0.7
				C149.2,256.7,150.2,258.5,151.9,259.1z"/>
		</g>
		<g>
			<path class="st1" d="M132.1,259.3c-0.3,0.6-1.2,0.8-1.1,1.4c4.1-1.2,6.3-2.5,7.8-4c0.6-0.2,1.3-0.8,1.9-0.7
				c-0.5,0.8-1.6,0.9-2.3,1.6c0,0.1,0.1,0.1,0.2,0.2c0.5-0.5,3.4-0.8,4-0.7c-4.3,1.3-8.5,3.1-9.9,3.6v0.2h2.8c1-0.1,1.9-0.8,3-0.9
				c1.7-0.7,3.7-0.9,4.7-2.5c0.6-1,1.6-1.5,2.1-2.5c-1-0.3-2.5-0.2-3.5,0.3c-2.2,0-4.7,0.1-6.7,1
				C133.6,256.7,133.2,258.5,132.1,259.3z"/>
		</g>
		<g>
			<path class="st1" d="M128.6,261.4c-2.3,0.1-3.5,1.8-5.1,3.2c1-0.1,2.1-0.3,3.1-0.9c2.2-1.9,4.6-3.8,6.2-6.3l-0.4-0.7
				c-1.2,0.2-2.4,0.4-3.3,1.1c-1.6,0.1-2.8,1.6-4.1,2.7c-1.1,0.7-0.8,2.2-1.3,3c1.2-0.8,4.1-4,7.4-5.5l0.2,0.2
				c-0.8,0.9-2.1,1.8-3.2,2.5c0.1,0.1,0.5,0.1,0.7,0.2C128.9,261,128.8,261.3,128.6,261.4z"/>
		</g>
		<g>
			<path class="st1" d="M167.2,262.6c0.3,0,0.9,0.4,1.1-0.1c-0.7-0.7-1.6-1.2-2.5-1.3c-0.8-0.4-2.8-1.2-4.5-3.2c0-0.1,0-0.2,0.1-0.3
				c0.7,0.7,4.3,2.8,6,3.3c1.1,0.5,1.7,1.7,2.8,1.9v-0.2c-2-1.9-4.1-3.7-6.6-5.1c-1-0.5-2.1-0.4-3.2-0.6c0,1.8,1.6,3,2.5,4.3
				C164.2,262,165.6,263.4,167.2,262.6z"/>
		</g>
		<g>
			<path class="st1" d="M174,264.6c2.4,2.6,5.6,3.4,7.5,6.4c0.4,0.6,0.9,1.2,1.4,1.3c0-0.6-0.8-0.9-0.9-1.5
				c-2.1-1.2-5.2-5.4-5.2-5.4c-0.8-0.6-1.4-1.3-2.3-1.7c-1.3-1-3.2-1.4-4-3.1c0-0.3-0.4-0.6-0.1-1c0.7,0.4,0.9,1.2,1.5,1.8
				c0.3,0.1,4.8,1.9,6,4.2c0.1,0.1,4.4,4.8,5.3,5.2h0.1c-0.3-1-1.1-1.9-1.5-2.9c-2.4-1.8-3.3-4.7-6-6.2c-1.7-0.6-3.2-1.7-4.9-2.3
				l-0.3-0.3c-0.4-0.1-0.9-0.5-1.2-0.1c0.2,0.7,0.9,1.4,1.2,2.1C171.2,262.7,172.7,263.5,174,264.6z"/>
		</g>
		<g>
			<path class="st1" d="M109.4,274.7c0.6-0.7,0.8-1.7,1.5-2.5c0.6-1,4-4.8,4.6-6.4c0.8-0.1-0.1,0.7,0.2,1c1-1,2.3-1.8,3.4-2.6
				c0.5-0.5,1.4-1.1,1.7-1.3c0.4-0.3,0.5-0.8,1.1-1c0.1,0,0.1,0.2,0.1,0.3c-1.7,2.1-4.2,3.4-6.1,5c0,0-0.5,0.4-0.9,1.1
				c-0.4,0.1-5.3,6.5-5.5,7.6h0.2c0.8-1.6,2.4-2.7,3.6-4.2c2-3.3,5.8-3.9,8.2-6.6c1-1.4,2.2-3,2-5c-0.5,0.1-1,0.2-1.5,0.5
				c-3.1,3.1-7.5,3.7-10.3,7.4c-1.1,0.7-1.3,2.1-2,3.1C109.7,272.3,108.9,273.6,109.4,274.7z"/>
		</g>
		<g>
			<path class="st1" d="M145.2,264.2c-1.6-0.8-3.1-1.5-4.8-1.9l-1.5,0.1c-2.1-1.1-4.4-0.7-6.7-0.7c-1.1,0-2.2,0-3,0.6
				c-0.2,0.1-0.1,0.4,0,0.5c1,0.1,6.4,0,9.5,0.6l2.8-0.5c0.3,0.8-1,0.1-1,0.8c0.6,0.2,1.2,0,1.8,0.3c0.1,0.1-0.1,0.2-0.2,0.2
				c-1.9-0.2-10.4-0.9-11-0.8c-1-0.3-2.3-0.3-3.1,0.2l0.1,0.2c0.9-0.1,1.8,0.4,2.7,0.4c2.7,0.8,6,0.3,8.8,0.7
				c1.2,0.2,2.4-0.1,3.6,0.2C143.8,264.7,144.9,265.1,145.2,264.2z"/>
		</g>
		<g>
			<path class="st1" d="M147.4,265.4c0.9,0.9,2.3,0.6,3.4,0.8c2.9-1.1,6-3.3,9.4-2.4l0.2-0.2c-0.7-0.4-1.7-0.1-2.5-0.3
				c-3.2,0-5.7,2.3-9,1.3c1.9-0.6,4.2-0.6,5.2-1c0,0,0.9-0.3,2.3-0.4c0.2-0.2,0.6-0.1,0.7-0.4c-0.1-0.2-0.2-0.2-0.4-0.3
				c-0.9-0.7-2.2-0.6-3.4-0.7c-2.5,0.6-4.5,2.1-6.6,3.4C147,265.4,147.3,265.4,147.4,265.4z"/>
		</g>
		<g>
			<path class="st1" d="M163.3,263c-0.4-0.1-0.9-0.3-1.2-0.1c0,0-0.1-0.1-0.1-0.2l-3.8-0.5l-0.2,0.1c0.2,0.4,0.8,0.2,1.1,0.4
				c1.5,0,2.8,0.8,4.3,0.4V263H163.3z"/>
		</g>
		<g>
			<path class="st1" d="M179.6,270.5c0.4,0.5,0.6,1.2,1,1.7c0.9,0.7,1.9,1.2,2.8,2l0.2-0.2c-0.7-0.4-1-1.2-1.6-1.8
				c-0.9-1.3-2-1.9-2.9-3.1c-1.2-0.6-2.1-1.4-3.2-2c-2.3-2.5-5.5-4-9-3.7l-0.3,0.4c0.5,0.5,0.8,1.3,1.1,2c0.9,0.9,1.5,2.1,2.6,2.7
				c1.3,0.5,2.2,1.6,3.6,1.9c0.8,0.2,1.5,0.6,2.2,1.1c2.8,0.8,4,3.6,6.7,4.5c0.3,0.2,0.9,0.2,1.2,0c0-0.1,0-0.2,0-0.3
				c-0.8-1.1-2.2-2-2.2-2c-2.8-0.9-5.9-4.7-11-7c-0.4-0.2-2.4-1.6-2.8-2.3l0.3-0.3c0.3,0.3,8.9,4.8,11.2,7.7
				C180.5,272.2,178.9,271,179.6,270.5z"/>
		</g>
		<g>
			<path class="st1" d="M155.8,269.3l0.3,0.2c1.6-0.7,3.6-0.1,4.8-1.5c1.5-1.3,2.4-3.1,4.5-3.5v-0.2c-1.9,0.3-6.3,4-7.1,3.8
				c0.2-0.4,0.8-0.9,1.2-1.2c1.6-1.4,1.9-1.3,3.2-2.3c0.5-0.3,1.2-0.2,1.5-0.7l-0.1-0.2c-0.5,0.1-1.1,0.1-1.7,0.2
				c-1.3,0-2.5,0.7-3.5,1.4C157.5,266.1,157,268,155.8,269.3z"/>
		</g>
		<g>
			<path class="st1" d="M151.9,267.5c-0.1,0.3-0.7,0.5-0.6,0.9c0.4,0.2,0.4-0.3,0.8-0.1c0.8-0.5,2-0.2,2.8-1s2.5-0.7,2.6-1.8
				c-1.3,0-2.3,0.6-3.3,1.2c-0.3,0.3-0.9,0.7-1.3,0.5c0.4-0.5,2-1.7,3.2-1.8c0.8-0.7,2.1-0.1,2.8-0.9v-0.2
				C156.2,263.7,153.3,265.2,151.9,267.5z"/>
		</g>
		<g>
			<path class="st1" d="M127,264.5c-0.3,0.1-0.5,0.4-0.4,0.7c1.1,1.1,3.2,1.3,3.2,1.3c0.7,0.1,1.4,0.3,2.1,0.4
				c0.5,0.3,2.3,1.5,1.8,1.6l0.2,0.7c0.7,1.4,2.4,1.7,3.8,1.6c0.1-1-1.1-0.9-1.5-1.6c-1.1-1.1-2.4-2.2-3.6-3.2
				C131,264.8,129,264.6,127,264.5z"/>
		</g>
		<g>
			<path class="st1" d="M115.8,272.8c0,0-4.4,3.3-5.8,4.9c2.1-1.1,3.8-3.1,6.2-3.8c0.4-0.6,1.1-0.2,1.6-0.8c3.5-1.2,5.7-4.6,7.6-7.5
				c0.2-0.1,0.2-0.5,0-0.6c-1,0.5-1.8,0.2-2.8,0.5c-1.3,0.8-2.3,1.7-3.5,2.6c-0.3,0-0.4,0.2-0.6,0.3c-2.8,1.3-4.9,4-6.9,6.2
				c-0.4,0.6-1,1.2-1.3,1.8c0.4,0,0.6-0.5,0.9-0.6c0.8-0.7,6.6-5.1,6.6-5.1s4.4-3.2,5.8-3.8c-0.6,1.5-2.5,2.1-3.5,3.2
				c0.5,0.1,0.9-0.1,1.3-0.3c0.1,0.1,0.2,0.2,0.2,0.3c-1,0.9-2.4,0.4-3.5,1.2C117.2,271.8,116.5,272.2,115.8,272.8z"/>
		</g>
		<g>
			<path class="st1" d="M164.8,266.5c0-0.1,1.3-0.3,1.9-0.4v-0.4l-0.5-0.7c-1.9,0-3.3,1.8-4.5,3.1l0.2,0.2c1.3-0.3,2.5-0.7,3.8-0.9
				l2.2,0.2v-0.1c-1.1-1.3-3.3-0.6-4.6-0.2c0.1-0.1-0.1-0.1,0-0.2C163.7,266.8,164.3,266.6,164.8,266.5z"/>
		</g>
		<g>
			<path class="st1" d="M133.5,265.3v0.3c2,0.7,3.6,2.4,6.1,2c0.5,0,1.1,0.3,1.5,0.2c-1-1.7-2.8-2.9-4.9-2.5v0.3
				c0.5,0.6,1.7,0.4,2.4,0.9c0,0.2,0.2,0.5,0,0.6C137.7,267,134.5,265.4,133.5,265.3z"/>
		</g>
		<g>
			<path class="st1" d="M125.9,266c0.4,0.4,1,0.9,1.6,0.9c-0.2-0.4-0.5-0.7-0.7-1C126.5,265.6,126,265.6,125.9,266z"/>
		</g>
		<g>
			<path class="st1" d="M132,267.4c-1.2-0.5-2.8-0.1-4-0.7l-0.2,0.1c-0.1,1.1,1.2,0.7,1.8,1.3c0.3,0.2,0.7-0.2,0.9,0.1
				c1.1,0,2,0.3,2.9,0.7C133.4,268.3,132.6,267.9,132,267.4z"/>
		</g>
		<g>
			<path class="st1" d="M124.5,268.3c0.8-0.3,1.8-0.2,2.5-0.5c-0.1-0.7-1-0.7-1.6-1C124.9,267.2,124.5,267.8,124.5,268.3z"/>
		</g>
		<g>
			<path class="st1" d="M186.8,273.3c1.8,0.6,2.5,2.4,3.9,3.5h0.3l-0.3-0.7c-2-2.1-4.2-4.1-5.8-6.6c-0.1-0.3-0.4-0.7-0.2-1
				c0.6,0.3,0.8,0.9,1.1,1.4c0.4,0.5,3,3.9,3.8,4.2c0-0.6-0.5-1-0.2-1.5c0.1,0,0.6,2.2,1.3,2.8c0.1,0,0.2,0.1,0.3,0
				c-0.5-0.8-0.6-1.8-1.1-2.6c-0.6-0.6-0.6-1.4-1.4-1.7c0.1-0.5-0.4-0.5-0.7-0.8c-1-1.4-2.9-1.7-4-3.3h-0.3
				c-0.2,1.3,0.4,2.5,0.7,3.7C184.2,272.3,186,272.3,186.8,273.3z"/>
		</g>
		<g>
			<path class="st1" d="M136.3,268.4c0.4,0.1,0.8,0.9,1.3,0.5c0.1-0.2,0.2-0.4,0-0.6c-0.8-0.2-1.4-0.6-2.1-1
				C135.4,267.9,136,267.9,136.3,268.4z"/>
		</g>
		<g>
			<path class="st1" d="M104.1,276.8c0.4-0.8,1.5-0.9,1.8-1.8c0.3-0.7,1.3-3.4,1.7-3.9c0.8,0.1-0.3,0.7,0.1,1c0.8-0.3,1.4-1.1,1.6-2
				c0.2-0.3-0.1-0.8,0.3-1c0-0.5,0.5-1,0-1.3c-0.7,0.3-1.2,1-1.8,1.5c-0.8,1-1.1,2.5-1.9,3.5c0,1.2-1.4,1.5-1.8,2.4
				C104.1,275.7,103.9,276.4,104.1,276.8z"/>
		</g>
		<g>
			<path class="st1" d="M169,270.3c0.8,0.4,4.2,1.6,5.6,1.8c0.3,0,0.6,0.3,0.9,0.1l-0.4-0.3c-2.4-1-4.6-2.7-7.2-3.3
				c-0.9-0.4-2.1-0.3-3.1-0.3c-1,0.2-1.9,0.6-2.9,0.8c0.6,0.4,1,1.2,1.7,1.4c1.9,1.6,4.3,2.3,6.8,2.8c0.5,0,0.9,0.5,1.4,0.3
				c1.4,0.6,3,0.8,4.3,1.8c1.1,0,2.5,0.1,3.6,0.1c-0.8-1.5-2.4-2-3.9-2.1c-0.5-0.1-0.8,0.5-1.1,0c0.1-0.5,0.8,0,0.9-0.4
				c-1.5-0.6-4.1-1-4.2-1.1c-1.1-0.2-3.8-1.7-4.8-2.1c-0.4-0.2-1.4-0.1-1.4-0.6C166.5,269.1,167.8,269.7,169,270.3z"/>
		</g>
		<g>
			<path class="st1" d="M127.9,273.5c2-0.8,2.4-2.8,3.1-4.5c-0.2-0.4-0.7-0.2-1.1-0.4l-1.3-0.1c-1-0.3-2.1,0.4-3.2,0.2
				c-2.6,0.3-3.2,3.3-5.5,4c-1.3,1.1-3.2,1.3-4.4,2.3l0.1,0.1c1.4-0.6,4.6-1.3,5.2-1.4c1.6-0.3,2.2-2.1,3.3-3l0.1,0.1
				c0.1,0.4-0.3,0.5-0.5,0.9c-0.1,0.4-0.6,0.6-0.6,1c0,0,4.5-2.5,5.8-3c0.1,0.1,0.2,0.2,0.2,0.3c-0.8,0.5-4.3,2.2-5.3,2.9
				c-0.5,0.1-1.6,1-5.4,1.8c-0.8,0.3-1.4,0.5-3.6,0.8c-0.8,0.3-1.7,0.6-2.4,1.2c0.9,0.1,2.1,0.1,3.2,0c2.2-0.4,4.4-0.7,6.8-0.9
				c1.8,0,2.7-1.7,4.4-2.1C127.2,273.7,127.5,273.6,127.9,273.5z"/>
		</g>
		<g>
			<path class="st1" d="M108.7,272.2l-0.1-0.1c-0.4,0.2-0.7,0.6-1.1,1c-0.1,0.7-0.8,1.3-0.6,2c0.5-0.1,1.1-0.3,1.5-0.7L108.7,272.2z
				"/>
		</g>
		<g>
			<path class="st1" d="M189.4,276.5c-1.2-1.9-3.3-2.5-5-4h-0.5c0,1.2,0.8,2.3,1.4,3.3c0.1,0.6,0.3,1.1,0.7,1.6
				c0.2,0.8,0.8,1.4,0.9,2.2c0.4,0.8,0.9,1.2,1.1,2c2.2,1.8,2.9,4.4,5.1,6.1c1.2,0.6,1.9,1.7,2.6,2.8c0.2-0.1,0.1-0.3,0.2-0.4
				c0.3-0.3,0.6,0.3,0.8,0.5c0.1,0,0.2,0.2,0.3,0c-0.7-1.2-2.5-2.4-2.4-2.4c0,0-3.9-7.3-9.7-13.2l0.2-0.3c0.5,0.3,4.1,3.7,4.3,4.2
				c1.1,1.2,2,2.8,2.9,4c0.1-0.1,0.2-0.2,0.1-0.2c-0.1-1.3-0.2-2.5-0.4-3.9C191.5,277.6,190.1,277.6,189.4,276.5z"/>
		</g>
		<g>
			<path class="st1" d="M192.9,279.4l0.1,0.2c0.2,1,0.8,1.8,1.2,2.7c0.4,0.6,0.3,1.2,0.8,1.6c0.6,2.2,1.7,4.1,3.1,5.7
				c1.7,1.6,1.8,4.4,4.1,5.7l0.1-0.1c-0.4-1.1-0.3-2.4-1.1-3.3c-1.1-1.2-1.7-2.8-3.1-3.9l0.3-0.2c0.2,0,0.3,0.3,0.5,0.3
				c0.2-1.9-4.5-6.4-4-8.3c-0.7-1.3-1.5-2.9-1.5-4.5c-0.2-0.2,0-0.7-0.5-0.6C192.4,276.2,193.1,277.7,192.9,279.4z"/>
		</g>
		<g>
			<path class="st1" d="M106.2,281.2c-2.3,0.7-3,3.4-4.3,4.8c-0.5,0.9-4,6.5-4.4,8.5c-0.3,0.9-0.3,2.1-0.3,3.2l0.1,0.2
				c0.4-0.4,0.6-1.1,0.8-1.6c0.2-0.3,0-0.7,0.3-0.9c0-3.3,2.8-5.6,4.7-7.8c1.7-1,2.4-3.3,3.5-4.6c1.4-1.4,2.2-3.1,2.1-5
				c0-0.7-0.4-1.4,0-2c-0.1-0.8-0.8-0.5-1.2-0.2c-1.1,0.1-2.2,0.8-2.8,1.5c-1,0.6-1.3,1.7-2,2.6c0.1,0.6-0.5,0.9-0.5,1.4
				c-1.1,1.2-2,2.9-2.4,4.5c-0.4,1.2-0.7,2.2-0.8,3.5h0.3c0.7-1.2,3.9-6.3,4.5-7.6c0.2-0.8,2.3-3.1,2.9-3.4l0.2,0.2
				c-0.4,0.9-1.1,1.5-1.6,2.3v0.4l0.4-0.1c0.4-0.3,0.8-0.8,1.2-0.8C107.1,280.6,106.5,280.8,106.2,281.2z"/>
		</g>
		<g>
			<path class="st1" d="M195.2,279.2c0-0.4-0.2-0.7,0.2-1l0.3,0.2c-0.2,0.9-0.5,2.2,0.4,2.9c0.1,0.4,1.5,2.8,2.8,4.7
				c0.2-0.3,0-0.9,0.2-1.3c0.5,0.2,0.1,1,0.2,1.4c0,0.8,0.2,1.6,0.6,2.3c0.2,0.8,2.3,3.6,2.3,4.5c0.4,0.2-0.1,1.4,0.5,0.9
				c-0.1-1.2,0.1-3-0.6-4.1c-0.7-2.1-1.1-4.5-2.4-6.4c0-0.4-0.2-0.3-0.4-0.8c-1.8-1.5-2.5-3.4-3.6-5.3c-0.6-0.5-0.9-1.2-1.6-1.6
				c0,1.1,0.2,1.4,0.5,2.2C194.7,278.4,194.8,278.5,195.2,279.2z"/>
		</g>
		<g>
			<path class="st1" d="M91.6,298.4c0-0.2,0.1-0.5,0-0.7c0.2-1.6,0.9-5,1-5.5c0.1-0.3,0.7-1.8,1.1-2.4c0.7-1.4,0.9-2.3,1.5-3.1
				c0.1-0.5,0.5-0.8,0.6-1.3c0.8-1.1,1.1-2.5,1.2-4c0.2-0.4-0.1-1.1,0.3-1.3c0.5,0.7-0.1,1.6,0.2,2.4c0,0,0.9-1.6,1-2.2
				c0.4-0.9,0.5-1.9,1-2.8c0.1,0,0.2,0,0.3,0c-0.1,0.8-0.4,1.6-0.6,2.3c0,1.3-1,1.7-1.2,2.7c-0.7,0.8-0.8,1.7-1.3,2.6
				c-0.1,0.2-0.6,1.4-1.2,2.7c-0.5,1-1,2-1.5,2.9c-0.2,0.9-0.6,1.5-0.8,2.6c0,0.2-0.7,3.1-0.8,4.7c1.7-1,1.5-3.1,2.3-4.6
				c0.6-1.6,1.4-3.2,1.9-4.9c0.3-1.2,0.8-2.1,1.2-3.3c1.1-1.2,1.1-2.9,2.1-4.1c0-0.7,0.3-1.2,0.3-1.8c0.4-0.8-0.3-1.5,0-2.5
				l-0.3-1.1c-0.6,0.1-0.6,1.1-1.1,1.6c-1.7,2-3.4,4.2-4.1,6.8c-0.9,1.2-2.2,2.2-2.6,3.7c-1,1.7-1.4,3.7-1.7,5.7
				c-0.1,1.8,0.8,3.2,1,4.8L91.6,298.4L91.6,298.4z"/>
		</g>
		<g>
			<path class="st1" d="M171.9,277.2l0.4,0.5c1,0.5,1.8,1.6,2.9,1.6c1.5,0.5,3,1.1,4.6,0.6l-0.1-0.6c-1.3-0.7-4.1-1.7-5.2-2.1
				c0.8-0.5,3.5,0.4,4.2,1l0.3-0.1c0.3-0.5-0.5-0.5-0.5-1c0.2-1,1.5,0,1.6-0.9c-0.9-0.2-1.9-0.3-3-0.4
				C175.2,275.7,173.6,276.8,171.9,277.2z"/>
		</g>
		<g>
			<path class="st1" d="M114.6,279.1c-0.1,0.1,0,0.3,0.1,0.3l2.2,0.1c2.1-0.2,4.3-0.7,5.3-2.6c-2.8,0-5.3,1-8.1,0.6
				c-1.4,0.3-3.1,0-4.1,1.3l0.2,0.2c1.5-0.8,8.4-1.1,8.9-0.8c-1.1,0.6-2.4,0.1-3.5,0.5C116.1,279.9,115,278.7,114.6,279.1z"/>
		</g>
		<g>
			<path class="st1" d="M189.2,286.6c0.4,1,0.9,1.3,1.5,1.9c1,0.9,4,3.7,5.2,5.1c0.1-0.3,0.2-0.7,0.1-1c-0.9-2.1-2.6-3.8-4.3-5.3
				c-1.3-1.5-2-3.2-3.6-4.6c-1.3-1.6-1.7-3.7-3.3-5.2c-1.6-0.9-3.3-0.4-5-0.2c0.1,0.5,0.2,0.8,0.5,1.2c0.1,1,0.7,1.7,0.7,2.6
				c0.3,1.6,1.1,3.1,2.1,4.3c0.5,0.2,0.8,0.7,1.3,0.9c1.5,1.3,2.9,2.6,3.8,4.3c0.6,0.6,1,1.6,1.8,2c1.4,1.8,4,2.3,5.9,3.5l0.2-0.1
				c0.1-2.3-2.4-2.9-3.9-3.8c0.4-0.2,1-0.1,1.5,0.1c0.3,0.1-1.5-1.7-2.8-2.5c0,0-2.8-2.8-3.8-5c-0.7-1.1-2.1-2.6-1.4-1.9
				c0,0-2.5-3.8-4.5-4.9c0.1-0.2,0.3-0.2,0.5-0.2c1.8,0.8,3.6,2.9,4.2,3.9c1,1.2,2.5,4,2.5,4c-0.4-0.4-0.4-0.9-0.4-1.4h0.2
				c0,0.3,0.4,0.4,0.3,0.7C188.7,286.1,188.8,286.1,189.2,286.6z"/>
		</g>
		<g>
			<path class="st1" d="M97.1,289.1c2.4-1.4,1.8-4.5,3.3-6.5c1.3-1.5,1.7-3.3,2.9-4.8l0,0c-2.6,0.7-2.6,3.9-4,5.7
				C98.6,285.4,97.4,287.1,97.1,289.1z"/>
		</g>
		<g>
			<path class="st1" d="M106.7,284c-1.6,3.3-5.1,5.6-6.9,8.8c-0.1,0.9-0.8,1.6-0.5,2.5h0.2l1.4-1.7c0.4-0.4,2.8-3,2.8-3
				c0.8-0.7,0-2.2,0.9-2.8c0.3,0.3-0.1,0.7,0.1,1l0.4-0.4c0.6-1.6,4.4-4.5,5.7-6.7c0.1,0,0.1,0.2,0.2,0.3c-0.2,0.3-0.5,0.7-0.6,1.1
				c0.7-0.3,1.4-0.7,2.1-1.3c0.2,0.1,0,0.2,0.1,0.3c-1.6,1.4-5.6,4.2-5.4,4.5c0.4-0.2-1.2,1.4-2.1,2.5c-0.2,0.4-1.2,2.2-2.1,3
				c-1.3,1.9-4,3.3-4.6,5.5c3-1.5,4.8-4.5,7.3-6.5c0.3-1,1.5-1.9,2.3-2.5c1.6-2.4,5.2-3.3,5.5-6.6c-0.1-0.9,0.1-1.9,0-2.8
				c-1.6-0.2-3.1,0.3-4.3,1.1C108.8,281.8,107.4,282.8,106.7,284z"/>
		</g>
		<g>
			<path class="st1" d="M193,281.8c-0.2,1.8,1.4,4.6,1.7,5.1c0.6,0.8,1.4,1.5,2.1,2.1l-0.1-0.3c-0.9-1.1-1.6-2.3-2-3.7
				C194.2,284.1,193.7,282.8,193,281.8z"/>
		</g>
		<g>
			<path class="st1" d="M95.6,292.9c-0.3,0.7-0.8,1.4-0.7,2.2c0.7-1.3,2.6-3.7,2.9-3.6c0.8-0.7,1.1-1.9,0.9-2.9
				C97.3,289.8,96.4,291.3,95.6,292.9z"/>
		</g>
		<g>
			<path class="st1" d="M197.7,290l-0.2,0.3c0.7,0.7,0.7,1.9,1.8,2.4C199.2,291.7,198.3,290.8,197.7,290z"/>
		</g>
		<g>
			<path class="st1" d="M196.9,291.5c-0.5,1.6-0.4,3.5,0,5.3c0.4,0.8,0.9,1.7,1.4,2.6c1.4,2,1.4,4.6,2,6.9c0.1,0.6,0.6,1,0.6,1.6
				c0.6,0.7,1.2,1.4,1.2,2.4c0,0.8,0.3,1.4,0.4,2.2c0.2,0.4-0.1,0.8,0.3,1.1c0.3,1.6,0.7,3,1.6,4.3c0.4,0.1,0.4-0.5,0.7-0.8
				c0-0.2,0-0.5-0.3-0.5c-0.5-0.8-1.2-1.6-1.2-2.7c-0.8-2-0.7-4-1.6-7.9c-2.3-4-3.4-11-4.4-12.2c0.1-0.1,0.1-0.1,0.2-0.1
				c1.7,1.8,2.4,4.3,3,6.7c0.6-0.5,0.6,0.3,0.3,2.1c0.3,0.8,1.4,2.8,1.4,2.8c0.1,0.6,0.4,1.2,0.4,1.7c0.4,0.3,0.1,1.1,0.6,1.2
				c0.1-0.5-0.1-1.3,0.2-1.8c0.4,0.5,0.2,1.1,0.1,1.8c-0.3,1-0.2,3-0.2,3s0.2,1.7,0.5,2.6c0.4,0.9,0.6,2,1.3,2.6
				c0.3-0.1,0.1-0.7,0.2-0.9c0.2-2.3-1.5-4-0.9-6.4c0.2-2.8-1.3-5.2-1.2-8.1c-0.3-1.1,0.3-2.6-0.6-3.6
				C201.3,295.2,198.9,293.3,196.9,291.5z"/>
		</g>
		<g>
			<path class="st1" d="M190.8,295.3c-0.1-0.8-0.8-1.4-1.5-1.8c-0.2-0.9-1.9-2.4-2.8-3.2c-0.3,0.4,0.5,2.3,0.5,2.7
				C187.7,294.3,189.5,295.2,190.8,295.3z"/>
		</g>
		<g>
			<path class="st1" d="M102.5,297.5c0.4,0.5,0.9-0.5,1.5-0.4c2-0.8,2-3.1,1.9-5h-0.3c-1.2,1.1-2.2,2.2-3.1,3.4v0.4
				c0,0.2-0.1,0.6,0.3,0.6c0.5-0.6,1.1-1.3,1.6-1.9c0.5,0.3,0.7-0.8,1.2-0.5C104.8,295.5,103.1,296,102.5,297.5z"/>
		</g>
		<g>
			<path class="st1" d="M203.9,300.8c0,0.8,0.1,1.7,0.4,2.4c-0.2,0.8,0.5,1.3,0.4,2.2c1.2,2.2-0.3,5,1,7.2c0.6,1.4,0.1,3.2,0.6,4.7
				h0.1c0.1-1.1,1.1-2,0.7-3.2c0.4-1.5-0.5-3.8-0.3-3.8c-0.6-1.6-0.4-3.7-1.8-5.1V305h0.2c0.2,0.4,0.6,0.9,0.9,1
				c0.1-1-0.1-2.5,0-3.3c0-0.3-0.6-3.2-0.6-3.1c-0.3-0.9-0.9-2.7-0.8-2.6c-0.7-1.4,0.6-3.2-0.8-4.4c-1.1,1-0.9,2.6-0.9,4
				C203.6,297.9,204.3,299.4,203.9,300.8z"/>
		</g>
		<g>
			<path class="st1" d="M206.7,301.2c0.5,2.5-0.1,5.1,0.2,6.8c0,0.3,0.2,0.8,0.4,0.7c0.1-0.7,0.4-1.4,0.8-2c0.1,0.1,0.2-0.1,0.3,0.1
				c-0.5,1.2-0.9,2.5-0.8,3.8c0.4,0.8,0.1,2,0.3,2.8c1.3-1.4,2.4-3.2,2.1-5.3c0.1-0.5-0.4-0.8-0.2-1.4c-0.4-0.6-0.3-1.4-0.8-1.9
				c-1.3-2.1-0.6-5-1.7-7.2c-0.3-1.2-1.1-2.3-1.8-3.3l-0.4-0.2c-0.1,1.5,0.1,3.1,0.7,4.5C205.9,298.7,206.5,300,206.7,301.2z"/>
		</g>
		<g>
			<path class="st1" d="M90.3,322.2c0.2-0.2,0-0.5,0.2-0.6c0.1-1.4,0.1-4.4,0.1-4.4c0-0.8-0.1-3.1-0.1-3.1l0.1-0.1
				c-0.1-1.6,0.9-5.4,1.3-5.2c1-1.7,0.6-3.4,0.7-4.4c0,0,0.8-3.4,0.8-5.2h0.2c0.4,0.2,0,0.5,0.1,0.7c0.5-0.1,0.4-1,1-1.2
				c0.1,0.1,0,0.2,0,0.3c-0.5,0.8-0.6,1.8-0.9,2.7c-0.1,0.2-0.2,4.4-0.8,6.2c0.4,0-1,3-1.5,4.3c-0.2,0.9-0.3,2-0.3,2.9
				c0.2,0.6,0,1.3,0.1,1.8c0.6-0.7,0.3-1.8,1-2.5c0-1,0.5-1.9,0.7-2.8c1.6-2.5,1.3-5.7,2.4-8.3c-0.1-0.4,0.3-0.7,0.5-1.1
				c0.2-0.9,0.5-1.7,0.6-2.6c-0.1-1.6,0.1-3.3,0-5l-0.1-0.1c-1.7,1.7-3,3.2-4,5.2c-2,2.9-1.1,6.6-2.3,9.8c-0.8,2.1-0.7,4.6-0.7,6.8
				c-0.5,1.3-0.5,2.8-0.7,4.2C89.3,321,89.9,321.5,90.3,322.2z"/>
		</g>
		<g>
			<path class="st1" d="M198,306.2c0,0.3,1,1.8,1.4,2.7c0.1-1.2,0.2-2.4-0.1-3.4c-0.1-2.2-0.8-3.9-1.6-5.8c-0.8-2.6-3.4-3.7-5.5-4.7
				l-0.1,0.2c0.7,1.7,0.4,3.6,1.1,5.2c0.3,1.3,1.1,2.3,2.1,3.4c0,0.8,0.9,1.1,1.2,1.7c0,0.4,0.1,0.9,0.3,1.2
				c0.5,0.8,0.9,1.6,1.5,2.3c0.1,1.6,1.1,3,2.3,4c0.1,0,0.2,0,0.3-0.1c-0.2-0.7-6.4-14.2-7.3-16.2c0.6,0.4,2.8,3.6,3,4.7
				c0.4,0.9,0.5,1.5,0.8,2.2c0.7,0.8,0-0.7,0.7-0.7C198.1,304.1,197.8,305.3,198,306.2z"/>
		</g>
		<g>
			<path class="st1" d="M87.7,304L87.7,304L87.7,304L87.7,304z"/>
		</g>
		<g>
			<path class="st1" d="M86.1,318.7c0.7,0.1,0.1-0.7,0.5-0.8l0.1-4.4c0.2-1.1,0.2-2.6,0.4-3.6c0.4-0.5,0.5-2.6,0.5-2.6
				c0.2-1.2,0.2-2.9,0.2-3.3c-0.1-1.1,0.2-2,0.3-3c0.4-0.7,0.5-1.7,1.2-2.1c0.2,0.4-0.2,0.9-0.2,1.4c-0.6,0.9-0.7,2-0.6,3.1
				c0.6,0,0.5-0.6,0.9-0.9c0.4-0.4,0.2-1,0.6-1.4c0.1,0,0.2,0,0.3,0c-0.2,0.7-0.4,1.5-0.8,2c-1.5,1.1-0.9,3.1-1.3,4.8
				c-0.1,0.7-0.2,0.8-0.1,1.6c-0.4,1-0.6,2-0.5,3.2c0,0,0.3,4.7-0.7,7c0.1,1.2,0.4,2.3,0.6,3.5c0.5,0.3,0,1,0.6,1.4
				c0.5-0.4,0.4-1.1,0.4-1.8c0-0.4-0.4-0.8-0.1-1.1c-0.6-0.9-0.3-2.2-0.3-3.2c0.2-0.8,0.3-1.6,0.6-2.3l-0.1-3.9
				c-0.5-0.9,0.7-1.4,0.6-2.4c1.5-2.4,0.5-5.6,1.7-8.1c0.4-2.2-0.3-4-0.9-5.8l-2.1,2.9c-0.3,0.6-0.4,1.4-0.9,2
				c0,0.7-0.2,1.1-0.1,1.6c-0.2,1.4-0.6,2.6-0.9,4c-1.1,2-1.5,4.3-1.8,6.6c0.2,1.2,0.1,2.6,0.9,3.5
				C84.9,317.5,85.8,317.9,86.1,318.7z"/>
		</g>
		<g>
			<path class="st1" d="M87.7,304C87.7,303.9,87.7,303.9,87.7,304L87.7,304z"/>
		</g>
		<g>
			<path class="st1" d="M95.3,306c-0.2,1.2-0.3,2.5-0.7,3.6c-1.1,2.4-1.7,4.9-2.4,7.5c-0.6,1.3-0.7,3-0.9,4.4h0.2
				c0.2-0.1,0.2-0.5,0.3-0.7c0.4-0.1,0-0.7,0.3-0.8c0.4-2.1,1.4-3.8,2-5.8c0.1-0.8,0.7-2.1,0.8-2.4c0.6-1.3,1.3-3.8,1.3-4.2
				c0.3-0.4,0.4-0.8,0.5-1.3c0.5-1.2,0.8-2.5,0.6-3.9c0.1-0.4-0.1-0.9,0.2-1.3c0.3,0.5,0,1.2,0.2,1.7c1.1-1.2,1.3-3.2,2.6-4.3
				l0.1,0.1c-0.6,0.8-0.7,1.8-1.5,2.5c-0.3,1.2-1,2.1-1.2,3.2c0.1,0.5,0,0.6-0.2,1.5c-0.6,1.6-0.8,3-1.5,4.4c-0.2,1.2-1,3-1.8,4.8
				c0.1,0.5-1,2.5-0.8,3c1.3-1.4,2.5-2.7,3.4-4.3c0.4-0.8-0.1-1.5,0-2.3c1.3-0.9,1.5-2.2,2.2-3.3c2.2-3.3,2.9-7.2,2.8-11.3l-0.2-0.4
				c-2.9,0.9-4.4,3.8-5.6,6.4c0,0.6-0.7,1.2-0.5,1.9C95.3,305.1,95.5,305.6,95.3,306z"/>
		</g>
		<g>
			<path class="st1" d="M203.8,319v-0.5c-0.6-0.8-1.2-1.8-1.3-2.9c-0.7-1.6-0.9-3.5-1.1-5.4c-0.4-1-1-2.1-1.7-2.8l-0.1,0.4
				c0,2.3,1.6,4,1.6,6.2c0.5,1.2,1,2.3,1.5,3.5C203,318.1,203.3,318.9,203.8,319z"/>
		</g>
		<g>
			<path class="st1" d="M199.9,315.4c0.1-0.1,2.3,3.8,3.2,5.1l0.3-0.5c-0.4-1.1-1.2-2-1.5-3.1c-0.5-0.1,0-0.7-0.4-0.7
				c-0.5-2.1-2.9-2.8-4.3-3.9c-0.1,0.5,0,1.1,0.1,1.6l-0.1,0.1c0.2,0.6,0.3,1.4,0.6,2.1c1.8,2.3,3.3,4.2,4.7,6.4h0.1
				c0.7-1-0.1-1.9-0.6-2.6c-0.6-1.5-2.1-2.6-3.2-3.7c-0.1-0.2-0.3-0.4,0-0.5c0.4,0.4,0.8,1,1.3,1c-0.4-1.3-1.4-2-2.2-3l0.2-0.1
				C198.9,314.1,200.1,315.5,199.9,315.4z"/>
		</g>
		<g>
			<path class="st1" d="M209,323.4c0.4-0.8,0.8-1.4,0.9-2.2c0.9-2.1,0.3-4.7-0.5-6.6c-0.3-0.3,0-1-0.5-1c-0.8,1.5-1.6,3-1.9,4.6
				c-0.3,1.4,0.6,2.8,1.1,4.1c0.3-0.6-0.1-1.2-0.1-1.8c0-0.5,0.1-1.1,0.1-1.1s0-3.4,0.6-4.2c0.4,0.7-0.1,4.8-0.1,6
				c0.5,0.1,0-1,0.6-0.8C209.2,321.4,208.3,322.4,209,323.4z"/>
		</g>
		<g>
			<path class="st1" d="M97.5,314.1c-0.7,0.6-0.6,1.6-1.3,2.2c-1.1,0.2-0.8,1.7-2,1.8c0.1,0.6-0.8,0.8-0.8,1.3
				c0.1,0.3,0.3,0.5,0.5,0.5c0.7-0.2,1.2-1,1.3-1.1c-0.1-0.4,0.4-0.4,0.5-0.7c0.3-0.5,0.4-1.3,0.8-1.6c0.3,0.8-0.5,1.8-0.8,2.6
				l-1.2,1.3c-0.1,0.4,0.1,0.6,0.3,0.8c0.5-0.3,2.2-1.5,1.9-2.2C97.4,317.6,97.8,315.9,97.5,314.1z"/>
		</g>
		<g>
			<path class="st1" d="M85.8,326.2L85.8,326.2c-0.1-0.5,0.2-1-0.2-1.3c-0.2-1-0.8-1.8-1.5-2.5c0.5-0.8-0.2-1.7-0.3-2.6
				c-0.1-0.2,0.1-0.4,0.3-0.3c0.6,0.6,0.2,2,1.1,2.3c0.2-0.3-0.1-0.9,0.3-0.9c0.3,0.1,0.2,0.4,0.3,0.7c-0.5,0.7-0.1,1.6,0.1,2.4
				c0.1,0.6,0.5,1.2,0.3,1.7c0.5,0.9,0.5,2,1.1,2.8l0.3,0.1V326c-0.1-0.2-0.3-0.5-0.1-0.7c-0.6-1.2-0.8-2.5-1.1-3.8
				c-0.2-1.1-0.9-2.1-1.4-3c-0.8-0.7-0.8-1.7-1.5-2.4l-0.5,1.5c0,0.2,0.1,0.6-0.1,0.8c0,1.1-0.4,2.2-0.1,3.3
				C82.9,323.7,84.3,325.1,85.8,326.2z"/>
		</g>
		<g>
			<path class="st1" d="M206.9,320.9c-0.4-0.9-1-1.9-1-2.8l-0.2-0.7c-0.4,0-0.5,0.7-0.8,1c-1,1-1.2,2.4-1.6,3.7
				c-0.3,1.4-0.3,3.2-0.4,4.6c0.2,1.8-0.6,3.5-1,5.3c-0.6,0.6-0.5,1.5-0.7,2.2c-0.9,2,0.2,4.4-0.4,6.6c0,0.5-0.4,0.9-0.1,1.4
				c0.6,0,1.2-0.5,1.6-1c0-0.1,0-0.3-0.1-0.4c0.1-1.5-0.1-3.4-0.5-4.8c0.5,0,0.6,0.8,0.7,1c0.3-0.6,0.5-1.5,0.7-2.2
				c0.4-1.6,0.6-2.5,0.8-3.3c0.2-1.5,0.8-6.8,0.9-9.6c0.4-0.6-0.1-1.8,0.6-2.1c0.1,1.5,0.1,7.4-0.5,9.1c0.5,0,0.7-0.9,1.2-1.1l0,0
				c-0.3,0.7-0.8,1.5-1.2,2.2s-0.1,1.7-0.7,2.3c-0.1,1-0.9,3.9-1.2,5.3c-0.1,1.2-0.7,2.8,0.4,3.1l0.2-0.3c0.2-2.3,1.4-4.2,2.2-6.2
				c0.4-2.4,0.5-4.7,1.1-7C208,325.2,207.3,322.8,206.9,320.9z"/>
		</g>
		<g>
			<path class="st1" d="M92.1,324.6v-0.4c0.1-0.1,0.3-0.4,0.6-0.3c0-0.7,0.4-1.2,0.3-1.9c0.1-0.7,0.6-1.6-0.1-2
				c-0.8,1.4-1.5,2.9-1.1,4.6L92.1,324.6L92.1,324.6z"/>
		</g>
		<g>
			<path class="st1" d="M202.1,323.5c-0.6-1-0.8-2.1-1.6-2.9c-0.8,1.1-2.1,2.1-2.5,3.4c-0.5,0.8-1,2.7-0.8,5.3
				c0.2,1.5,0.4,3.2,0.2,4.6c0.1,1.7-0.2,3.6-0.1,5.5c0.3,0.8,0.6,1.6,0.7,2.4c0.1,1-0.4,2,0,2.9c0.5-0.4,0.1-1.3,0.4-1.9
				c0.2-0.5,0-1.2,0.3-1.6c-0.3-1.3-0.3-2.6-0.9-3.7l0.1-0.2l0.3,0.2c0.2,0.4,0.2,1,0.7,0.9c-0.2-1.9-0.1-3.9,0.1-4.7
				c0.3-1.3,0.7-4.4,0.6-3.3c0,0,0.8-5.7,1.1-7.5c0.4,0.5,0.4,1.2,0.3,1.9c0.1,0.2,0,0.3,0,0.5c-0.1,1.4-0.3,2.3-0.4,3.5
				c-0.1,0.6-0.6,1.3-0.2,1.6l0.2-0.1c0.3-0.3,0.4-1.1,0.8-1c-0.4,1.2-1.1,2-1.6,3.1c-0.1,0.6-0.4,4.3-0.4,5.6
				c0.1,0.3-0.5,5.1-0.2,5.5l0.3-0.3c0.4-1.2,0.5-2.5,0.8-3.8c-0.3-2.8-0.1-5.5,1-7.9C202.1,329.1,202.3,325.9,202.1,323.5z"/>
		</g>
		<g>
			<path class="st1" d="M96.9,340.5c-0.9-2.1-1.3-6.4-1.3-6.4c-0.5-2.7-1.5-5.3-1.7-8.2c0-0.2,0.2-0.1,0.3-0.1
				c0.1,0.5,0.1,1.1,0.4,1.5c0.2-0.1,0.3-0.5,0.4-0.7c0.1,0.1,0.2,0.2,0.2,0.3c-0.5,1.3-0.3,2.1,0,3.5c0,0.4,0.2,0.9,0.5,1.3
				c0.1,0.8,0.1,2.1,0.5,3.6c0.4,0.5,0,1.1,0.5,1.5c0,0,0.1,2.4,0.8,3.6c0.1,0.4-0.1,0.8,0.2,1.1c0.1,1.3,0.4,2.5,0.9,3.5
				c0.3,0.1,0.1,0.8,0.6,0.5c0.4-1.1-0.6-1.8-0.4-2.8c-0.5-1.4-0.4-2.8-0.6-4.2c0.4-2.4,0-5.2-0.5-7.6c-0.4-0.8-0.6-1.6-0.8-2.4
				c-0.9-1.7-0.7-3.8-1.8-5.3c-0.3-0.5-0.5-1-0.6-1.6c-0.3-0.1-0.5-0.7-0.8-0.4c0.1,0.7-0.4,1.2-0.3,1.9c-0.7,1.8-1.5,3.7-1.1,5.9
				l0.2,0.2c-0.2,0.7,0.6,0.9,0.3,1.6c0.9,1.5,1.1,3.2,1.6,4.9c0.3,1.8,1.5,3.2,1.4,5.1c0.3,0.2,0.1,0.6,0.4,0.8
				c0.1,1.3,0.7,2.4,1.4,3.5c0.4,1,1,2,1.7,2.6c0.1-0.2,0-0.7,0.1-1C97.3,345.3,96.9,340.5,96.9,340.5z"/>
		</g>
		<g>
			<path class="st1" d="M211.7,326.1l-0.2-0.4c0-1.4-0.8-2.8-0.7-4.3c-0.7,0.5-0.7,1.5-1.2,2.2c-1.8,2.8-2.5,5.9-2.7,9.3
				c0,0.8-0.6,1.6,0.1,2.2c0.2,0.3,0,0.9,0.2,1.1l0.3-0.9c0.4-1.9,1.1-2.4,1.1-2.4c0.2-0.5,0.1-0.6,0.3-1.5c0.2-2,0.9-3.9,1.1-5.8
				l0.4-0.4l0.2,0.3c-0.3,4.6-1.7,7.1-1.5,7.7c0.4-0.4,1-0.9,1.5-1.2c0.2-0.1,0.2,0.2,0.2,0.3c-0.7,0.6-1.5,1.2-2.2,1.9
				c-0.7,1.4-1.2,2.8-1.8,4.3c0.3,0.4-0.7,1.9-0.8,2.9c-0.4,1.1-0.7,2.3-1.5,3.3c-0.3,1.3-1.4,2.3-2,3.4c-0.2,0.1-0.2,0.3-0.1,0.5
				c2-1.5,2.2-4,4.1-5.5c0.7-2,1.7-3.7,2.6-5.5c0.2-0.5,0.6-0.9,0.7-1.4c1.3-2.4,2.1-5,2.4-7.8C211.9,327.6,211.9,326.8,211.7,326.1
				z"/>
		</g>
		<g>
			<path class="st1" d="M89.6,334.9c0.5,0.7,0.6,1.6,1,2.3c0.9,1.6,1.4,3.4,1.9,5.1c0,0.7,0.4,1.3,0.6,2c0.1,0.9,1.1,1,1.8,1.2
				l0.1-0.3c-0.9-1.6-2.2-4.6-1.8-4.9c-0.7-1.6-1.4-3.1-1.7-4.9c-0.2-0.1-0.5-1.6-0.3-1c-0.4-0.8-0.2-1.6-0.4-2.3c0-1.7-1-3.1-1-4.7
				c0.1-0.1,0.3,0,0.4,0.2c-0.2,0.9,0.6,1.4,0.6,2.2c0.2,0,0.3-0.1,0.4-0.1c0.2,1.4,0.3,2.8,0.6,4.3c0.3,1.1,0.3,2.3,0.8,3.3
				c0.6,1.5,0.5,1.1,0.6,1.7c0.6,0.7,0.2,1.8,1.3,1.9c-0.1,0.6-0.1,0.9,0,1.4c0.7,1,0.2,2.6,1.6,3.4l1.2,0.5c0.3,0,0.1-0.4,0-0.5
				c-0.6-1.4-1.3-2.8-1.7-4.2c-0.3-0.3,0.1-0.9-0.4-1.1c-0.2-0.9,0-1.8-0.6-2.4c-0.2-0.5-0.5-1-0.5-1.6c-0.5-0.6-0.5-1.5-0.7-2.2
				c-0.2-0.5-0.3-1.1-0.5-1.6c0.1-0.6-0.5-1-0.5-1.5c-0.5-1.3-0.6-2.5-0.9-3.9c-0.7-1.7-1.1-3.7-2.1-5.2c-0.3,0.7-0.6,1.5-0.6,2.3
				C87.8,327.8,88.6,331.7,89.6,334.9z"/>
		</g>
		<g>
			<path class="st1" d="M91.5,344.8c0.1-0.4-0.3-0.6-0.5-0.9c-0.6-1.3-1.8-3-1.7-3.2c-0.7-0.8-1.2-2.1-1.9-2.9
				c-0.2-1.3-1.4-2.3-2.1-3.4c0-0.7,0.6,0,0.9-0.1c0.1-1.1-0.7-3.1-0.7-3.7c-0.4-0.8-0.7-1.8-1.1-2.6c-0.1-0.5-0.8-1.1-0.5-1.6
				c0.5,0.6,1.1,1.3,1.2,2.1c0.5,0.6,0.5,1.5,1.1,2.1c0.5-0.2,0.6,3.4,1.2,5.5c0.2,0.5,0.4,0.9,0.9,1.5c0.5,0.7,2.5,4,3,5.8
				c1.1,0.8,0.6,2.3,1.8,3.1c0.3-0.5-0.3-1-0.5-1.5c-0.3-0.9-0.5-1.7-0.9-2.6c-0.3-1.5-0.9-3-1.6-4.4c-0.3-0.9-0.9-1.7-1.2-2.7
				c-0.7-1.7-0.9-3.7-1.5-5.4c-0.1-0.6-0.8-0.9-0.8-1.6c-1-1.5-2.6-2.5-3.7-3.9c-0.7,2.8-0.3,5.6,0.7,8.2c-0.1,0.8,0.6,1.5,0.4,2.2
				c0.6,0.6,0,1.6,0.7,2.2C85.4,340.4,88.1,344.1,91.5,344.8z"/>
		</g>
		<g>
			<path class="st1" d="M195.6,333.9l-1.3,2.2c-0.4,2.1-0.6,4.7,0.5,6.4c0.5-0.6,0.4-1.4,0.1-2.1c-0.2-0.6,0-2.8,0-2.8
				c0.1-0.6-0.1-1.4,0-1.9c0.4,0,0.7,0.7,0.7,1.6c-0.2,1-0.3,1.9-0.2,2.8c0.1,0.2,0.3,0.5,0.6,0.4c0.1-0.5-0.2-1,0.3-1.3v-2
				c-0.1-0.2-0.3-0.5-0.1-0.7C196.1,335.8,196,334.7,195.6,333.9z"/>
		</g>
		<g>
			<path class="st1" d="M204,344.2L204,344.2c0.6-0.4,0.8-1.3,1-2c0.2-2.4,2.2-4.4,1.5-7c-0.4,0.4-0.6,0.9-0.8,1.4
				C204.7,338.9,204.3,341.5,204,344.2z"/>
		</g>
		<g>
			<path class="st1" d="M100,343.5c0.4-0.4,0.4-0.9,0.4-0.9c0.4-0.9-0.2-0.8-0.2-2.4c-0.1-0.5-0.4-1.2,0.1-1.5
				c0.3,0.6,0.5,1.3,0.6,2.1c0.1,0.5,0.2,1.2,0.5,1.7c-0.5,0.5-0.8,1.1-0.5,1.7c0.3,0.3,0.6,1,1.1,0.7v-0.8
				c-0.3-2.3-0.5-4.8-1.8-6.6c-0.4,0-0.5,0.6-0.5,1c-0.7,1-0.4,2.1-0.4,3.3C99.7,342.4,99.3,343.3,100,343.5z"/>
		</g>
		<g>
			<path class="st1" d="M207.1,343.6c-0.3,0.6-1.1,1.1-1.2,1.8c-0.8,0.9-1.2,2.1-2.2,2.9l0.1,0.1l0.2-0.1c0.6,0.2,1.4,0.1,2,0
				c0.5-0.8,0.7-1.8,1.5-2.4c1.3-1.6,2-3.8,1.5-6.2C208.2,340.9,207.8,342.3,207.1,343.6z"/>
		</g>
		<g>
			<path class="st1" d="M200.5,349.9c0.6-1.3,1.8-2.4,2.4-3.8c0.8-1.4,0.3-3,0.2-4.6c-3,0.9-4.9,4.1-6.1,6.7c-0.1,0.9-1,1.6-0.6,2.7
				l0.2-0.1c0.4-0.9,2.3-3.1,3.6-5.2c0.5-0.9,0.7-2.3,1.8-2.7c0,0.7-1.3,2.7-1.5,3.8c-0.7,0.9-1.3,1.8-2,2.8
				c0.5,0.3,0.9-0.7,1.5-0.4c-0.2,0.3-0.7,0.4-1,0.6c-1.8,0.9-2.9,2.4-3.8,4c0.3-0.1-1.3,1.3-2.1,2.4c-0.4,0.4,0.4,0.3,0.3,0.7
				C192,357,191,358,190,359c0.4,0.3,1-0.2,1.6-0.2C195.5,357.2,197.3,352.7,200.5,349.9z"/>
		</g>
		<g>
			<path class="st1" d="M91.5,349.3c-1.1-0.9-1.7-2.3-2.7-3.3c0.1-1.2,0.5,0.5,1,0.3l-0.2-0.6c0.1-0.1,0.2-0.1,0.4-0.1
				c0.1,0.6,0.4,1.2,0.7,1.7c0.6,1.5,2.3,2.4,3.4,3.6l0.1-0.1c0.1-0.2,0-0.4-0.2-0.6c0.2-0.6-0.3-0.9-0.2-1.4
				c-0.9-1.1-1.5-2.5-2.7-3.3c-1.6-0.9-3.5-1.5-4.7-3c-0.2,0.3-0.1,0.7,0.1,0.9c0.1,1.6,0.6,3.1,1.4,4.4c1.5,1.5,2.9,3.4,5.1,3.5
				C92.6,350.6,91.5,349.3,91.5,349.3z"/>
		</g>
		<g>
			<path class="st1" d="M196.8,344.5c-0.3-0.6-0.1-1.6-0.8-1.9c-0.9,0.6-1.7,1.4-2.5,2.2c-1.4,2.2-2.7,4.1-3.9,6.7
				c-1,0.9-1,2.6-1.2,4.6c-0.1,0.5-0.2,1.2-0.1,1.7c0.4-0.9,1.4-1.3,1.4-2.4c0.3-1.3,0.9-3.2,0.9-3.2l1.2-2.3c0.3-0.8,0.6-1.1,1-1.6
				c0.5-0.9,2.6-4.4,2.6-4.4c0.2,0,0.2,0.1,0.4,0.2c-1.9,4.7-3.2,5.1-3.8,6.9c0,0.4-1.6,2.7-1.3,3.9c0.4,0,0.8-0.5,1.2-0.8l0.2,0.2
				c-0.3,0.4-0.7,0.8-1.1,1.1c-0.8,1.7-3.2,2.9-3.1,5c1.5-0.9,2.3-2.7,3.6-4c1.1-2.6,2.9-4.7,4.4-7.1
				C196.4,347.8,196.9,346.1,196.8,344.5z"/>
		</g>
		<g>
			<path class="st1" d="M101.4,351.6c1.1,1.8,2.4,3.5,3.7,5.1c1.3,1.4,2.4,3.2,3.5,4.7c0.2,0.3,0.5,0.7,0.8,0.6v-0.2
				c-0.7-3.3-3.6-5.4-5.3-8.1c-0.3-0.6-0.6-0.9-0.4-1.2c-0.4-1.2-1.1-2.3-1.4-3.5c-0.1-0.4-0.9-0.7-0.6-1.2c0.2,0,0.3,0.2,0.5,0.3
				c0.4,0.9,1.1,1.8,1.5,2.8c0.4-0.5-0.5-1.3,0.2-1.6c0.1,0.7,0.3,1.5,0.3,2.2c0.1,1.1,0.8,1.9,1.1,2.9c0.2,0.3,1.9,2.1,1.7,2
				c0.6,0.4,0.7,1.2,1.2,1.7c0.1,0.1,0.3,0.1,0.4,0c-0.1-0.1,0-0.2,0-0.3c-0.5-0.3-0.1-1-0.3-1.4c0.1-0.2,0.2-0.6-0.2-0.7
				c-0.1-0.7-0.4-1.6-0.6-2.3l-1.6-1.9c-1.9-2.3-2.7-5.2-5.7-6.4c-0.5,0.7,0.1,1.5-0.1,2.3C100.1,348.8,100.8,350.2,101.4,351.6z"/>
		</g>
		<g>
			<path class="st1" d="M107,356.4C107,356.4,107,356.3,107,356.4C107,356.3,107,356.4,107,356.4z"/>
		</g>
		<g>
			<path class="st1" d="M95.2,350.1c0,1.1,0.7,2.1,1.4,2.9c1.2,0.6,2,2.1,3.1,2.9c1.1,0.6,1.6,1.8,2.6,2.4c1.5,1.9,3.4,3.1,5.7,3.4
				c-0.1-0.6-0.8-0.8-1-1.4c-1.9-1.5-5.2-3.6-5.2-3.6c-0.7-0.9-1.9-2.8-2.7-3.8c-0.7-1-1.9-1.5-2.7-2.4l0.1-0.2
				c0.6,0.4,1.2,0.9,1.8,1c-0.4-1.1-1.4-1.8-2-2.9l0.2-0.1c1.1,0.4,1.5,1.9,2.3,2.6c0,0,1.7,2.3,2.3,3.3c0.5,0.3,0.5,0.6,0.8,0.8
				c0.5,1.3,1.9,2.2,3.1,2.9c-0.9-1.5-2.2-2.9-3.2-4.4c-0.7-1.3-1.4-2.6-2.2-3.9c-0.3-0.1-0.7-0.2-0.6-0.7c-0.6-0.9-1.5-2.1-2.7-2.3
				c-0.5-0.7-1.4-0.2-2-0.6c-0.2,0.4,0,1.1,0.3,1.4C94.9,348.4,94.6,349.4,95.2,350.1z"/>
		</g>
		<g>
			<path class="st1" d="M192.7,355.7c1.2-1.2,2.4-2.7,2.7-4.3h-0.2c-0.9,1.1-1.5,2.3-2.2,3.4C192.8,355.1,192.4,355.5,192.7,355.7z"
				/>
		</g>
		<g>
			<path class="st1" d="M101.5,363.3c1.3,1.3,3.1,1.8,4.9,1.9c0.1-0.5-0.4-0.9-0.7-1.4c-1.6-0.3-2.9-1.3-4.4-1.9l0.3-0.3
				c-1.4-1.2-2.5-3.1-4-4.2c-0.7-0.9-1.9-0.9-2.7-1.7c0.1-0.1,0.2-0.2,0.3-0.2c0.4,0.2,0.7,0.5,1.1,0.5c-0.7-1.1-1.8-1-2.5-2.1
				l0.1-0.1c1.2,0.7,2.6,1.5,3.5,2.6c0.3,0.2,0.5,0.2,0.8-0.1l0.7,1.6c1.5,1.6,3,3.7,5.1,4.7c0.5,0,0.9,0.6,1.5,0.3
				c-0.1-0.2,0.1-0.6-0.1-0.7c-2.5-2.6-5.1-4.7-7.7-7.3c-0.7-1-1.8-1.4-2.7-1.9c-0.9-0.5-1.8-0.9-2.9-1c-0.6,0.1-1-0.8-1.4,0
				c0.8,1.5,1.5,3.1,2.8,4.2c1.5,1.6,3.8,1.7,5.1,3.8C99.7,360.8,99.9,362.6,101.5,363.3z"/>
		</g>
		<g>
			<path class="st1" d="M187.4,353.3c-2.5,1.5-4.2,3.8-5.3,6.4c-2.1,3.4-5.3,6.1-7,9.7c-0.1,0.5-0.7,0.9-0.6,1.4
				c1.2-0.8,2.3-1.6,3.4-2.6c0.8-0.7,1-0.8,1.5-1.4c1.6-1.5,3.6-4.5,4.5-5.6l1-2.6c0.3-1.5,0.8-3.3,2-3.9c0.1,0.1,0.1,0.2,0.1,0.3
				c-1,1.2-1.4,2.8-1.7,4.3c0,0-0.3,2.2-2.2,4.4c0.3,0.2,0.6-0.3,0.9-0.2c1.5-1.3,3.8-2.1,3.4-4.5c0.5-1.2,0.4-2.6,0.6-3.8
				C187.6,354.7,188.2,353.6,187.4,353.3z"/>
		</g>
		<g>
			<path class="st1" d="M110.5,362.2c2,1.1,3.5,2.9,5.1,4.6c0.6,0.4,1.3,0.8,1.8,1.4c0.2,0.5,1,0.7,1.2,1.2l1.4,1.4
				c0.5,0.4,1.2,0.8,1.8,0.9c-0.4-1-1.3-1.7-2.1-2.6c-0.6-0.1-1.1-0.7-1.7-1c0.2-0.2,0.5-0.5,0.2-0.8c-1.2-1-2.1-2.3-3.3-3.3
				c-0.7-0.1-2.4-2.4-3.1-3.2c-0.1-0.2-0.5-0.5-0.3-0.8c0.8,0.3,1.1,1.4,1.9,1.8c0.3-0.3,0-0.8,0-1.3c0-0.2-0.1-0.5,0.2-0.5
				c0.4,0.5,0.4,1.3,0.5,2c0.4,1.3,1.5,2,2.3,3c0.7,0.4,1.9,2,2.6,2.6c0.1-0.4,0.2-0.5,0.4-0.8c-1-2.1-2.7-3.5-4.3-5.1
				c-0.3-1-1.2-1.9-1.9-2.8c-1.2-0.9-2.5-2.4-4.2-2.6c-0.5,1.2,0.5,2,0.5,3.2C109.7,360.5,109.8,361.5,110.5,362.2z"/>
		</g>
		<g>
			<path class="st1" d="M198.6,358.5c-1.1,1.1-2.5,2.3-3.8,3.5v0.1c1.7-1.1,3.3-2.5,5.1-3.6l0.2,0.1c-0.5,0.5-1.2,1.1-1.9,1.5
				c-0.2,0.1,0,0.5-0.3,0.4c-1.2,0.2-1.2,1.5-2.4,1.8c-0.1,0.1,0,0.2,0.1,0.3c2.9-0.1,5-2.6,6.1-5.1l-0.1-0.1
				C200.7,357.9,199.6,358.1,198.6,358.5z"/>
		</g>
		<g>
			<path class="st1" d="M192.2,360.5c0.2,0,0.5-0.3,0.7-0.5c0.2-0.4,0.5-0.8,0.3-1.2l-0.6,0.5C192.6,359.8,192.1,360.1,192.2,360.5z
				"/>
		</g>
		<g>
			<path class="st1" d="M178.9,363c0.3-0.8,0.6-1.7,0.6-2.5c-0.5,0-0.6,0.7-0.9,0.9c0,0.7-0.8,1.1-0.5,1.9c-0.9,1.3-2.3,2.2-2.4,3.8
				C176.6,365.7,178,364.3,178.9,363z"/>
		</g>
		<g>
			<path class="st1" d="M107.5,366.4c-0.3-0.6-1-0.5-1.6-0.5c-1.9-0.6-3.8-0.7-5.8-1.1c0-0.4,0.3-0.1,0.5-0.2c0-0.2-0.2-0.3-0.2-0.5
				c0.3-0.5,0.4,0.4,0.8,0c0-0.1,0-0.2,0-0.3c-1.2-0.5-1.5-2.3-3.1-2.1c-0.2,1,0.3,2,1.1,2.7c2.4,1.7,5.5,1.5,8.4,2.2
				C107.4,366.6,107.5,366.5,107.5,366.4z"/>
		</g>
		<g>
			<path class="st1" d="M113.6,369.6c0.8,1.2,2.3,1.1,3.4,1.9c0.7,0.3,1.4,1.3,2.1,0.7c0-0.1,0-0.2,0-0.3c-1.5-0.8-4.6-2.7-4.6-2.9
				l-1.6-1.5c-1-0.8-2.2-0.7-3.3-1.3l-0.3-0.3c0.6-0.4,1.2,0.5,1.7,0.3c-1-0.8-2.4-1.1-3.2-2.2l0.1-0.2l0.9,0.5
				c0.2-0.1,0.1-0.4,0.4-0.3c0.7,1.1,2,1.6,2.9,2.3c1,0.6,1.7,1.6,2.7,2.1c0.3,0.3,1.2,0.9,2.2,1.8c0.8,0.2,1.6,0.8,2.3,1.1v-0.2
				c-1.4-1.7-3.1-3.4-5-4.6c-0.9-1-2-1.8-2.8-2.8c-1.8-0.8-3.6-1.3-5.5-1.7c-0.4,0.9,0.4,1.5,0.7,2.2
				C108,367.2,111.4,367.9,113.6,369.6z"/>
		</g>
		<g>
			<path class="st1" d="M174.8,367.6l0.2,0.4c0.3-0.9,0.5-2,1.1-2.8c0.4-1.1,1.5-1.8,1.7-3h-0.1
				C176.4,363.8,174.7,365.4,174.8,367.6z"/>
		</g>
		<g>
			<path class="st1" d="M124.7,372.3l-1.6-3.3c-0.3-0.6-0.5-1.3-0.8-1.9c-0.9-1.8-2.5-3.1-3.8-4.5v0.9c0.3,0.2,0,0.7,0.3,0.9
				c1.1,3,4,4.7,5.3,7.7C124.3,372.3,124.5,372.5,124.7,372.3z"/>
		</g>
		<g>
			<path class="st1" d="M192.8,363.5c-1.4,0.1-2.3,1.5-3.4,2c-1,0.8-2.1,1.8-3.1,2.6c-2.6,0.8-5.2,2.1-6.8,4.3l0.1,0.2
				c0.5-0.1,1.2-0.3,1.1-1c1.9-0.6,3.8-1.2,5.1-2.7l0.5,0.1c1.4-0.7,5.4-3.1,5.6-2.8c0.8-0.6,1.9-1.5,3-1.6c-0.1,0.4-0.7,0.6-1,1
				c-1,0.8-4.5,2.7-6.1,3.4c0.2,0.1,0,0.3-0.1,0.4c-1.1,0.2-2.1,0.8-3,1.4c0,0-1.6,0.9-2.6,1.2v0.1l3.6-0.3c2.6-1,5-2.6,7.4-3.9
				c0.5-0.4,1-0.8,1.6-0.9c1.2-1,2.4-2.2,3.4-3.5l0.1-0.5h-0.7C196,363.3,194.3,363,192.8,363.5z"/>
		</g>
		<g>
			<path class="st1" d="M115.5,373.1c-0.9-1-1.8-0.8-2.5-1.1c0,0-1.9-1.4-3-1.6c-1-0.3-2.8-0.6-2.8-0.6c-1-0.4-2.2-0.6-3.1-1.3v-0.3
				c0.8-0.3,1.4,0.8,2.2,0.7c0.1-0.4-0.6-0.6-0.3-1c0.7,0.6,1.4,1,2.2,1.6c0.9,0,1.9,0.4,2.8,0.5c0.1-0.4,1.1,0.3,1.8,0.7
				c1.4,1.1,3.1,2,5,2.2c0.2-0.4-0.4-0.3-0.5-0.6c-0.8-0.2-1.4-0.8-2.2-0.9c-2-1.6-4.3-2.8-6.5-3.9c-2.3-1-5.3-0.5-7.6-1.6l-0.1,0.3
				c0.6,0.7,1.2,1.4,1.6,2.2l2.4,1.7c2.4,0.8,4.9,1.5,6.9,3C113,372.9,114.2,373.1,115.5,373.1z"/>
		</g>
		<g>
			<path class="st1" d="M123.1,371.8c-0.6-1.6-2.2-3-3.2-4.3l-0.1,0.2c0.4,1,1.1,1.8,1.8,2.7C122.3,370.8,122.1,372,123.1,371.8z"/>
		</g>
		<g>
			<path class="st1" d="M142,381.6c1.7-0.3,3.4,0,5.2-0.1v-0.1c-1.5-0.2-2.9-1-4.4-0.5c-1.9-1.4-3.8-2.2-5.3-4
				c-0.6-0.9-1.7-1.5-2.4-2.3c-2.6-1.3-4.8-3.5-7.2-5c-1.2-0.7-2.5-1-3.9-1.2l-0.1,0.4c1,1.8,1.8,3.5,3.2,5c3.2,2.8,6.9,4.4,11,5.1
				c-0.2-1.3-1.7-1.7-2.7-2.2c-0.9-0.4-2.5-0.7-2.5-0.7c-0.7-0.4-1.4-0.6-2-1.1c-0.6-0.3-2.4-1.4-2.3-1.9c-1-0.9-2.1-1.5-3.1-2.2
				c-0.1-0.1,0-0.2,0.1-0.3c0.7,0.2,1.3,0.7,2,1c0.2-0.2-0.1-0.6,0.2-0.7c0.2,0,0.2,0.3,0.3,0.4c0.7,1.7,2.3,3.1,3.9,3.9
				c0.2-0.5-0.5-0.8-0.5-1.4c0.1-0.1,0.2-0.1,0.3-0.1c0.8,1.5,2.2,2.5,3.8,2.5c0-0.4,2.3,1.2,3.4,2.6c0.1,0.2-0.1,0.4-0.1,0.5
				c0.6,0.3,1.3,0.6,1.9,1C141,380.6,141.5,381,142,381.6z"/>
		</g>
		<g>
			<path class="st1" d="M170.7,375.8c-0.6,0.1-1.2,0.3-1.7,0.7c-0.2,0.2-2,1.2-2.9,1.7l0.2,0.2c1.6-0.4,3.4-0.8,5-1.2
				c0.9-0.3,1.8-0.4,2.6-0.9c2.2-0.6,3.7-2.5,5.1-4.1l-0.2-0.3c-0.9-0.3-1.9-0.1-2.9-0.3c-2.1,0.9-4.5,0.8-6.1,2.5
				c-2.2,0.9-3.4,3-5.6,3.8c-0.1,0.2-0.5,0.1-0.4,0.4c1.8-0.2,4.9-2.5,5-2.4c0.7-0.3,1.1-0.6,2.2-1c1.5-0.6,5.7-1.9,5.7-1.9l0.1,0.2
				c-0.2,0.5-1,0.5-1.5,0.8c-0.9,0.5-2,0.5-2.7,1.2c0.1,0.2,0.2,0.3,0,0.5C172,375.4,171.3,375.6,170.7,375.8z"/>
		</g>
		<g>
			<path class="st1" d="M135.2,379.4c-1.1,0.2-1.9-0.6-2.9-0.2l0.2,0.3c1.7,0.9,3.8,0.1,5.4,0.9c0.7,0.1,1.4,0,2,0.4
				c0.1,0,0.1-0.1,0.2-0.1c0.2-0.6-0.8-0.6-1-1.1c-0.5,0.4-0.9-0.6-1.6-0.3c-0.8-0.4-1.7-0.4-2.5-0.6c-2.8-0.9-5.5-1.7-7.7-3.7
				c-0.7-0.7-1.6-1.5-2.5-1.9c-2.2-0.7-4.9-0.9-6.9,0.5v0.5c1.4,0.8,2.5,1.7,4,2.3c2.7,1.9,6.2,1.9,9.5,2.5l0.2-0.2l-0.1-0.1
				c-1.9-0.9-4.1-1.4-6.4-1.5c-0.3-0.1-0.7,0.5-0.8-0.1c0-0.3,0.5-0.1,0.6-0.4l-0.1-0.2c-1.5-0.9-2.9-1.8-4.7-2.1l-0.2-0.3
				c1.4-0.4,2.7,0.4,3.8,1.1c0.1-0.4,1.4,1.6,3.1,1.6c1.1,0,0.8-0.1,1.4,0.2c0.5,0,4.6,1.7,6.4,2.1c0.9,0.4,2.1,0.1,2.7,0.7H137
				C136.4,379.5,135.7,379.7,135.2,379.4z"/>
		</g>
		<g>
			<path class="st1" d="M179.6,373.4c-1.5,0.6-2.6,2-4.1,2.8c-0.1,0.1-0.2,0.2-0.1,0.3c0.8-0.2,1.7-0.4,2.4-0.8
				c0.4,0,6.3-2.2,6.6-1.9c0.6,0,1.3-0.4,2-0.6c0.1,0.1,0.1,0.1,0.1,0.2c-1.1,0.9-3,0.8-4.4,1.4c0,0-0.7,0.1-2.2,0.8
				c-0.1,0.2-0.5,0.1-0.3,0.4c0.4,0,0.9,0.1,1.1,0.4c-0.7,0.2-1.5-0.1-2.2,0c-0.5-0.1-1.2-0.1-1.4,0.4c0.5,0.3,1.1,0.6,1.7,0.7
				c0.5,0,0.8,0,1.2-0.3c2.3-0.3,4.7-1,6.3-2.8c0.5-0.4,1.2-1,1.3-1.6C185,372.2,182,372.6,179.6,373.4z"/>
		</g>
		<g>
			<path class="st1" d="M145.8,375.9c0.3-1,0.9-1.4,1.2-2.4l-0.3-0.2c-1.1-0.1-2.2,0.1-3.2,0.6c-0.2,0.3-0.6,0.6-0.5,1
				c0,0-0.4,0.8-0.2,1.6c0.3,0.9,1.1,1.7,0.7,2.8c0.5,1.2,1.9,0.8,2.9,1.2c0.3,0.1,0.8,0.3,1,0c-0.8-1.2-1.1-2.6-1.6-3.9
				C145.8,376.3,146.1,375.3,145.8,375.9z"/>
		</g>
		<g>
			<path class="st1" d="M153.9,378.3c0.8-0.5,1.9-1.2,1.9-2.2c0.3-1-0.1-1.6-0.2-1.7l-1.1-0.9c-1.6-0.3-3,0.3-4.6,0.4
				c-1,0-1.7-0.4-2.4-0.4c-0.1,0.4-0.9,2.2-1.2,2.6c0.1,0,4.6,0,5.5,0.1c0.5,0.5,1.3,1.1,1,1.9C153.1,378.8,153.6,378.4,153.9,378.3
				z"/>
		</g>
		<g>
			<path class="st1" d="M121,378.6c-1.2-0.7-2.5-0.9-3.7-1.3c-1.4-1.2-3.6-0.7-4.8-2l0.1-0.1c0.7,0.2,1.4,0.5,2,0.7
				c0.6,0,1,0.5,1.5,0.3c-0.3-0.5-1-0.7-1.4-1.1c0-0.1,0-0.2,0.1-0.3c1.5,0.3,2.3,2.2,4,2.2c0.6,0.3,0.6,0.2,1.3,0.5
				c0.6,0.3,1.3,0.3,1.8,0.7c0.3-0.1,1,0.4,0.9-0.3c-0.9-0.2-1.6-1-2.3-1.4c-1.3-0.5-2.4-1.4-3.7-2c-0.7-0.6-1.7-0.6-2.6-0.8
				c-0.3,0.3-0.5-0.3-0.8,0c-0.4-0.2-1,0-1.4,0.1c-0.6,0.2-1.3,0.3-1.7,0.7c1.4,1,2.7,2.2,4.2,3c1.4,1.2,2.9,2,4.6,2.1
				C120,379.5,120.7,379.3,121,378.6z"/>
		</g>
		<g>
			<path class="st1" d="M158.8,377.2c-0.4-0.6-1.1-0.1-1.6-0.1c-0.4,0.2-0.7,0-1,0.2c-0.7,1-2,1.3-2.7,2.2c1.3,0,2.3-0.7,3.5-1.1
				C157.6,378,158.5,377.9,158.8,377.2z"/>
		</g>
		<g>
			<path class="st1" d="M201.1,350.4c-1.8,1.7-3,3.4-4.7,5.2c-0.8,0.9-1.7,1.8-2.4,2.7c0.1,0.2-0.2,0.4,0.1,0.6
				c1.4-1.7,4.3-4,4.7-4.9c0.2-0.1,0.5,0,0.7,0.1c0.7,0,1.2-0.2,1.8-0.5c0,0.1,0.2,0.2,0.1,0.3c-2.8,0.7-5.6,3.6-6.7,5.3
				c0.3,0.2-1.8,1.8-2.7,2.5c-0.2,0.4-0.8,0.7-0.5,1.2c2.1-0.7,3.7-2.6,5.4-3.9c2-2.6,4.9-4.1,7.2-6.1c0.7-1.2,1.4-2.4,2-3.7
				C204.2,349.1,202.5,349.6,201.1,350.4z M204,350.6l-1.6,1.2c0.1,0.3,0.5,0.2,0.7,0.1c0.1-0.1,0.3-0.2,0.6-0.2
				c-0.3,0.7-1.4,0.2-2,0.6s-1.2,0.8-1.8,1.1c0.4-0.7,1.4-0.9,2-1.6h0.4c0.5-0.6,1.2-1.1,1.8-1.5L204,350.6L204,350.6z"/>
		</g>
		<g>
			<path class="st1" d="M181.4,369.8c2.3-1.6,5.4-2.1,7.2-4.5c1.5-0.6,1.8-2.4,2.5-3.8c0.1-0.7,0.5-1.2,0.6-1.9
				c-0.2-0.2-0.6-0.4-0.7,0c-3.3,0.8-5.2,4.2-8.4,5.3c-2.4,1.6-4.1,4.3-6.8,5.8c0.3,0.4,0.9,0,1.2,0.3c0.8-0.3,1.5-1.1,2.1-1.7
				c0.8-0.8,1.4-1.7,2.2-2.5l0.1,0.1c-0.1,0.5-0.9,0.9-0.6,1.5c1.8-0.5,4-2.9,4-2.9l0.2,0.2c0,0.3-0.9,1-2.3,2.7
				c-1.7,0.2-3.3,1.5-4.3,2.8C179.9,372.1,180.3,370.3,181.4,369.8z M185.5,364.9c0.4-0.6,3.1-3.3,4.2-3.1l-2.8,2.2
				c0.5,0.5,1.5-0.6,1.6,0.3c-1.2-0.3-2.1,0.7-3,1.1V364.9z"/>
		</g>
		<g>
			<path class="st1" d="M164.4,377.2c1.8-1.3,3.4-2.7,5.3-3.9c1.9-0.9,3.8-2.4,4.5-4.5c0.1-0.8,0.2-1.7,0.3-2.6
				c-0.1-0.4,0.5-0.6,0.1-0.9c-2.7,0.4-4.9,2.1-6.8,4c-0.7,1.6-2.3,2.2-3.6,3.3c-1.2,1.6-2.6,3.4-4.1,4.8c-1.3,1-3,1.5-4.2,2.4
				c2.7-0.6,5.4-1.4,8-2.3C163.9,377.2,164.1,377.1,164.4,377.2z M160.3,378.2c-0.3-0.4,0.4-0.3,0.5-0.6c2-2.5,5.5-4.5,6.3-5
				c0.7-0.9,1.4-2,1.1-1.1c0.4,0.4,0.7-0.2,1.1-0.4c0.8-0.6,1.3-1.6,1.8-2.5c0.3-0.2,0.4-0.8,0.9-0.9c0.1,0.2-0.7,1.3-1.2,2.7
				c-0.6,0.6-2.2,1.9-3.2,2.8c-0.2,0.3-2.9,1.3-3.6,2.2c0.3,0.6-0.5,0.5-0.7,0.7C162.2,376.6,161.5,377.7,160.3,378.2z"/>
		</g>
		<g>
			<path class="st1" d="M172.6,377.4l-2.8,0.6c-1.8,0.6-3.8,1.4-5.7,0.8c-2.6,0.1-4.6,0.4-6.9,1.2c-0.4,0.3-1.2-0.1-1.1,0.5l3,0.7
				c0.8,0.5,1.9,0.2,2.6,0.9c1-0.2,1.8,0.5,2.8,0.4c1.9,0.5,3.4-0.8,5.4-0.7c3.7,0.4,6.6-1.2,9.6-2.6V379c-1-1-2.4-1.5-3.8-1.7
				C174.5,377,173.5,377.5,172.6,377.4z M177.4,379.7c-2.9-0.2-6.3-0.4-8.9,0.8v0.1l1.8,0.6c-0.1,0.3-0.7,0-1-0.1
				c-1.9-0.1-4.9,0.1-4.9,0.1c-0.6-0.1-0.3-0.2-0.6-0.1c-1.6-0.1-3.1-0.8-4.7-0.7c-0.1,0-0.1-0.2-0.1-0.3c2.8-0.3,5.8,1.4,8.5,0
				c2.8-1.3,7.1-1.1,7.1-1.1l2.7,0.4L177.4,379.7L177.4,379.7z"/>
		</g>
		<g>
			<path class="st1" d="M140.7,381.4c-0.9,0.2-1.4-0.5-2.3-0.2c-2.2-0.7-4.8-0.1-6.7-1.3c-0.4-0.2-1-0.5-1.5-0.2
				c-0.4-0.4-1.2-0.1-1.7-0.3c-2.9-0.6-6.2-0.8-8.5,1.1l-0.1,0.3c1.8,1.6,4.2,1.6,6.5,1.8c0.6-0.1,1.5-0.1,2.2,0.1
				c2.6,0.5,5.3,1.3,8,0.2c1.4-0.1,2.7-1,4.1-0.9C140.7,381.6,140.8,381.4,140.7,381.4z M138.2,381.7c-2-0.3-3.8,1-5.5,0.4
				c-0.7,0-1.4,0.5-1.8,0.1c0.3-0.5-0.3-0.4-0.5-0.6c-0.8,0-1.7-0.5-2.6-0.4c-1.1-0.2-3.2-0.5-3.2-0.5c-0.7-0.3-1.7-0.3-2.6-0.3
				v-0.2c0.5-0.1,1.1-0.2,1.5-0.3c0.1-0.3-0.5-0.3-0.3-0.6c0.6,0.3,1.3,0.3,1.7,0.8c0.6,0,1.2,0.2,1.7,0c0.5,0.1,2.6,1,4.3,1.1
				C133.4,382,135.8,381.2,138.2,381.7L138.2,381.7z"/>
		</g>
		<g>
			<path class="st1" d="M150.5,381.1c-0.3-0.7-1.2-1.2-1.8-0.5l0.3,0.5c-0.1,0.4,0,0.8-0.2,1.2c0.2,0.5,0.9,0.1,1.3,0.1
				C150.4,382,150.7,381.5,150.5,381.1z"/>
		</g>
		<g>
			<path class="st1" d="M154,380.9c-0.5,0.5-1.5,0-1.7,0.6c0.8,0.2,1.6,0.4,2.4,0.8c0.6,0.5,1.1,1,1.2,1.8c-0.1,0.6-0.2,1.2-0.3,1.6
				c0.5-0.2,0.5-0.9,0.6-1.5c0.5,0.3-0.1,1.1,0.3,1.4c0.3-0.4,0.2-0.9,0.5-1.4c0.6,0.3,0,0.8,0.2,1.3c0.8-0.3,0-1.3,0.5-1.7
				c0.4,0.3,0.1,0.7,0.4,1.1l0.2-0.1c-0.3-1.1-0.5-2.1-1.2-3C156.1,381.4,155.1,380.9,154,380.9z"/>
		</g>
		<g>
			<path class="st1" d="M152.6,383.5c0.2,0,0.5,0.1,0.5-0.1c-0.5-0.5-1.2-1.1-1.9-1.3c-0.2,0.3-0.5,0.6-0.9,0.8
				c0.4,0.7,0.8,1.5,1.4,2c0.2-0.5-0.6-0.5-0.3-1c0.4,0.1,0.7,0.7,1.2,0.8c-0.1-0.4-0.8-0.5-0.5-1l1,1
				C153.4,384.2,152.5,384.1,152.6,383.5z"/>
		</g>
		<g>
			<path class="st1" d="M141.4,385c-0.7-0.1-0.1-0.7-0.3-1.2c0.2-0.6,0.8-0.2,1.1-0.4c1,0.5,1.6-0.6,2.4-0.9v-0.1
				c-0.3-0.4-0.9-0.1-1.5-0.2c-0.9,0-1.6,0.9-2.1,1.4c-0.4,1.3,0.5,2.1,0.9,3.2c0.7,0.1,1.5-0.3,2-0.8c-0.4-0.3-0.9-0.7-1.4-1
				C142.1,385.4,141.8,385,141.4,385z"/>
		</g>
		<g>
			<path class="st1" d="M153.5,382.5l-0.1,0.2c0.3,0.3,0.6,0.5,0.8,0.9c0.3,0.4,0,1.6,0.8,1.5c0.3-0.6,0.2-1.3-0.1-1.9
				C154.6,382.8,154,382.7,153.5,382.5z"/>
		</g>
		<g>
			<path class="st1" d="M145.3,384.7l0.1,0.1c0.3-0.2,0.3-0.5,0.5-0.7c0.3,0.1,0.8-0.1,1,0.2c0.4-0.3,0.2-0.9,0.4-1.3l-0.1-0.3
				C146,382.7,145.6,383.8,145.3,384.7z"/>
		</g>
		<g>
			<path class="st1" d="M143.5,384.2c-0.2,0.4,0.1,0.7,0.3,1.1c0.8,0.1,0.7-0.7,1-1.3c0.1-0.4,0.6-0.7,0.3-1.1
				C144.7,383.2,143.9,383.5,143.5,384.2z"/>
		</g>
		<g>
			<path class="st1" d="M163.8,385.8c-1.4-0.9-3-1.4-4.6-1.7c-0.2,0.2-0.4,0.6-0.2,0.8c1.3,0.3,2.3,0.9,3.5,1.6
				c0.5-0.2,0.9,0.8,1.4,0.2C163.8,386.4,164,386.1,163.8,385.8z"/>
		</g>
		<g>
			<path class="st1" d="M139.1,384.6c-1.2,0.8-3.2,0.9-3.8,2.5c0.2,0.2,0.4,0.3,0.6,0.3c1.3-0.7,2.8-1.1,4.1-1.7l0.1-0.5
				C140.2,384.8,139.6,384.1,139.1,384.6z"/>
		</g>
	</g>
	<g>
		<g>
			<polygon class="st2" points="122.4,285.9 124.6,292.5 131.4,292.5 125.9,296.5 128,303.1 122.4,299 116.9,303.1 119,296.5 
				113.4,292.5 120.3,292.5 			"/>
			<path class="st3" d="M116.9,303.4c-0.1,0-0.1,0-0.2-0.1s-0.2-0.2-0.1-0.4l2.1-6.3l-5.4-3.9c-0.1-0.1-0.2-0.2-0.1-0.4
				c0-0.1,0.2-0.2,0.3-0.2h6.6l2.1-6.3c0-0.1,0.2-0.2,0.3-0.2l0,0c0.1,0,0.3,0.1,0.3,0.2l2,6.3h6.6c0.1,0,0.3,0.1,0.3,0.2
				s0,0.3-0.1,0.4l-5.4,3.9l2,6.3c0,0.1,0,0.3-0.1,0.4s-0.3,0.1-0.4,0l-5.4-3.9l-5.4,3.9C117,303.4,116.9,303.4,116.9,303.4z
				 M114.5,292.8l4.7,3.4c0.1,0.1,0.2,0.2,0.1,0.4l-1.8,5.5l4.7-3.4c0.1-0.1,0.3-0.1,0.4,0l4.7,3.4l-1.8-5.5c0-0.1,0-0.3,0.1-0.4
				l4.7-3.4h-5.8c-0.1,0-0.3-0.1-0.3-0.2l-1.8-5.6l-1.8,5.6c0,0.1-0.2,0.2-0.3,0.2H114.5z"/>
		</g>
		<g>
			<polygon class="st2" points="170.5,285.9 172.6,292.5 179.5,292.5 173.9,296.5 176,303.1 170.5,299 164.9,303.1 167,296.5 
				161.4,292.5 168.3,292.5 			"/>
			<path class="st3" d="M164.9,303.4c-0.1,0-0.1,0-0.2-0.1c-0.1-0.1-0.2-0.2-0.1-0.4l2.1-6.3l-5.4-3.9c-0.1-0.1-0.2-0.2-0.1-0.4
				c0-0.1,0.2-0.2,0.3-0.2h6.6l2.1-6.3c0-0.1,0.2-0.2,0.3-0.2l0,0c0.1,0,0.3,0.1,0.3,0.2l2.1,6.3h6.6c0.1,0,0.3,0.1,0.3,0.2
				s0,0.3-0.1,0.4l-5.4,3.9l2,6.3c0,0.1,0,0.3-0.1,0.4s-0.3,0.1-0.4,0l-5.4-3.9l-5.4,3.9C165,303.4,165,303.4,164.9,303.4z
				 M170.5,298.7c0.1,0,0.1,0,0.2,0.1l4.7,3.4l-1.8-5.5c0-0.1,0-0.3,0.1-0.4l4.7-3.4h-5.8c-0.1,0-0.3-0.1-0.3-0.2l-1.8-5.6l-1.8,5.6
				c0,0.1-0.2,0.2-0.3,0.2h-5.8l4.7,3.4c0.1,0.1,0.2,0.2,0.1,0.4l-1.8,5.5l4.7-3.4C170.3,298.7,170.4,298.7,170.5,298.7z"/>
		</g>
		<g>
			<polygon class="st2" points="147.1,272.5 149.2,279 156.1,279 150.5,283 152.6,289.6 147.1,285.5 141.5,289.6 143.6,283 
				138.1,279 145,279 			"/>
			<path class="st3" d="M152.6,289.9c-0.1,0-0.1,0-0.2-0.1l-5.3-3.9l-5.4,3.9c-0.1,0.1-0.3,0.1-0.4,0c-0.1-0.1-0.2-0.2-0.1-0.4
				l2.1-6.3l-5.4-3.9c-0.1-0.1-0.2-0.2-0.1-0.4c0-0.1,0.2-0.2,0.3-0.2h6.6l2.1-6.3c0-0.1,0.2-0.2,0.3-0.2l0,0c0.1,0,0.3,0.1,0.3,0.2
				l2,6.3h6.6c0.1,0,0.3,0.1,0.3,0.2s0,0.3-0.1,0.4l-5.4,3.9l2,6.3c0,0.1,0,0.3-0.1,0.4C152.8,289.9,152.7,289.9,152.6,289.9z
				 M139.1,279.3l4.7,3.4c0.1,0.1,0.2,0.2,0.1,0.4l-1.8,5.6l4.7-3.4c0.1-0.1,0.3-0.1,0.4,0l4.7,3.4l-1.8-5.6c0-0.1,0-0.3,0.1-0.4
				l4.7-3.4h-5.8c-0.1,0-0.3-0.1-0.3-0.2l-1.8-5.6l-1.8,5.6c0,0.1-0.2,0.2-0.3,0.2H139.1z"/>
		</g>
		<g>
			<path class="st3" d="M184.9,312.5c0-1.7,1.4-3.1,3-3.1c1.7,0,3,1.4,3,3.1s-1.3,3.1-3,3.1C186.3,315.5,184.9,314.2,184.9,312.5z"
				/>
		</g>
		<g>
			<path class="st3" d="M167.5,327.6l-0.9,0.5c-0.7,0.4-0.5,0.9,0.1,1.1h7c0.8,0,1-0.8,0.1-1.1l-0.7-0.4v-17.8
				c-0.1-0.5-0.4-0.6-0.9-0.3l-5.9,2.9c-0.4,0.3-0.3,0.8,0,0.9l1,0.4c0.2,0.1,0.1,0.2,0.1,0.2L167.5,327.6L167.5,327.6z"/>
		</g>
		<g>
			<g>
				<path class="st3" d="M176.3,327.6l-0.9,0.5c-0.7,0.4-0.5,0.9,0.1,1.1h7c0.8,0,1-0.8,0.1-1.1l-0.6-0.4v-17.8
					c-0.1-0.5-0.4-0.6-0.9-0.3l-5.9,2.9c-0.4,0.3-0.3,0.8,0,0.9l1,0.4c0.2,0.1,0.1,0.2,0.1,0.2L176.3,327.6L176.3,327.6z"/>
			</g>
		</g>
		<g>
			<path class="st3" d="M190.8,316c-0.1-0.5-0.4-0.6-0.9-0.3l-5.9,2.9c-0.5,0.3-0.3,0.8,0,0.9l0.9,0.4c0.2,0.1,0.1,0.2,0.1,0.2v7.6
				l-0.9,0.5c-0.7,0.4-0.5,0.9,0.1,1.1h7c0.7,0,0.9-0.8,0.1-1.1l-0.7-0.4V316H190.8z"/>
		</g>
		<g>
			<path class="st3" d="M104.3,327.2c0,0.4-0.2,0.4-0.2,0.4l-0.9,0.5c-0.6,0.3-0.5,1,0.3,1.1c-0.7,0,10,0,10,0
				c4.2,0,5.9-3.3,5.9-5.7c0.1-2.1-2.2-4.4-3.9-4.4c-0.1,0-0.1-0.2,0-0.2c1.6,0,3.4-1.8,3.4-4s-1.7-4.5-5.7-4.7h-9.7
				c-0.8,0-0.6,0.9-0.2,1.1c0,0,0.8,0.4,0.8,0.5c0.2,0.2,0.3,0.1,0.3,0.4v15H104.3z M113,325.9c-0.2,0.3-0.9,0.6-1.5,0.6
				c-0.7,0-1.4-0.1-1.4-0.7v-5.1c0.1-0.4,0.6-0.6,1.2-0.6c0.7,0,1.1,0.1,1.8,0.7c0.7,0.7,0.5,1.7,0.6,2.5
				C113.6,324.5,113.3,325.7,113,325.9z M113,317.2c-0.2,0.2-1,0.7-2,0.7c-0.5,0-0.9,0-0.9-0.5v-4.1c0.2-0.7,2-0.8,2.6-0.1
				c0.4,0.4,0.7,0.9,0.7,2.3C113.3,316.1,113.3,316.8,113,317.2z"/>
		</g>
		<g>
			<path class="st3" d="M149.7,329.2h1.5c0.8,0,1-0.8,0.1-1.1l-0.7-0.4v-8.5c0-1.2-0.5-2.3-1.2-3.1c-0.6-0.7-1.8-1.5-3.5-1.5
				s-2.6,0.4-3.6,1.2c-0.7,0.5-0.6,0.1-0.6-0.1v-1.1c-0.1-0.4-0.5-0.6-0.9-0.3l-5.6,2.8c-0.6,0.3-0.5,0.8-0.2,0.9l0.9,0.4
				c0.2,0.1,0.1,0.3,0.1,0.3v9l-0.9,0.5c-0.7,0.4-0.5,0.9,0.1,1.1h7c0.8,0,1-0.8,0.1-1.1l-0.7-0.4V320c0.1-1.7,1.3-1.9,2-1.9
				c0.9,0,1.6,0.4,1.7,1.9v7.7l-0.9,0.5c-0.7,0.4-0.5,0.9,0.1,1.1h5.2V329.2z"/>
		</g>
		<g>
			<g>
				<path class="st3" d="M133.4,324.1c-1.3,1.1-2.8,2-4,2c-1.8,0-3.1-1-3.5-2.2c0,0,0-0.1,0.1-0.1c0.1,0.1,8.3-3,8.3-3
					c0.3-0.2,0.3-0.3,0.3-0.6c-0.1-1.8-2.5-6-7.2-5.8c-3.9,0-7.1,3.5-7.1,7.7c-0.1,3.1,1.8,7.6,7.3,7.8c3.4,0,6.3-2.3,7.4-4.6
					C135.2,324.2,133.8,323.6,133.4,324.1z M125.1,320.3c-0.2-1.1,0.2-3.2,2.2-3.5c1.8-0.1,2.3,1.4,2.3,2.2c0,0.2,0,0.2,0,0.3
					l-4.1,1.4C125.3,320.8,125.1,320.5,125.1,320.3z"/>
			</g>
			<g>
				<path class="st3" d="M164.9,324.1c-1.3,1.1-2.8,2-4,2c-1.8,0-3.1-1-3.5-2.2c0,0,0-0.1,0.1-0.1c0.1,0.1,8.3-3,8.3-3
					c0.3-0.2,0.3-0.3,0.3-0.6c-0.1-1.8-2.5-6-7.2-5.8c-3.9,0-7.1,3.5-7.2,7.7c-0.1,3.1,1.8,7.6,7.3,7.8c3.4,0,6.3-2.3,7.4-4.6
					C166.7,324.2,165.3,323.6,164.9,324.1z M156.6,320.3c-0.2-1.1,0.2-3.2,2.2-3.5c1.9-0.1,2.4,1.4,2.3,2.2c0,0.2,0,0.2,0,0.3
					l-4.1,1.4C156.8,320.8,156.6,320.5,156.6,320.3z"/>
			</g>
		</g>
		<g>
			<path class="st2" d="M167,368.9c0.3-0.6,1-1.1,1.5-1.5c0.8-0.7,1.7-1.3,2.6-1.9c-5,0-10,0-15,0c-8.5,0-16.9,0-25.4,0
				c-2.7,0-5.5,0-8.2,0c0.3,0.5,0.6,0.9,0.9,1.4c0.2,0.4,0.2,0.4,0.6,0.5c1,0.2,2,0.4,3,0.7c2.2,0.9,4.1,2.7,6,4
				c1.7,1.2,3.6,2.1,5,3.7c0.7,0.8,1.4,1.5,2.3,2.1c0.4,0.3,0.9,0.6,1.3,0.9c0.3,0.2,1.2,1,1.6,0.9c-0.1-0.2-0.4-0.6-0.3-0.8
				c0.2-0.3,0.2-0.6,0.1-1c-0.2-0.5-0.5-1-0.7-1.5c-0.2-0.6-0.1-1.3,0.1-1.9c-0.1-0.9,0.7-1.6,1.5-1.9c0.6-0.2,1.3-0.4,1.9-0.4
				c0.4,0,1.1-0.1,1.5,0.1s0.9,0.1,1.3,0.2c0.7,0.1,1.3,0.3,2,0.2c1.5-0.2,2.9-0.6,4.4-0.4c0.5,0.1,1,0.7,1.3,1
				c0.8,0.7,0.6,1.8,0.5,2.7c0.8-0.1,1.8-0.5,2.5,0.1l0.3,0.3c0.3-0.3,0.6-0.5,0.8-0.8c0.6-0.6,1.1-1.2,1.6-1.8
				c0.7-0.8,1.2-1.8,2.1-2.4C165,370.8,166.4,370.2,167,368.9z"/>
		</g>
		<g>
			<path d="M121.9,365.2L121.9,365.2c0.1,0.2,0.3,0.3,0.4,0.4c0,0.1,0.1,0.2,0.1,0.3h48.5c0.3-0.2,0.8-0.4,1-0.6h0.1L121.9,365.2
				L121.9,365.2z"/>
		</g>
		<g>
			<g>
				<path d="M166.7,343.9c-0.3-0.7-0.9-1.8-1.1-2.8V341c-0.6-1.5-1.7-2.3-3.1-2.3c-0.1,0-0.2,0-0.2,0c-1,0-1.5,0.5-2,1l-0.1,0.1
					c-1.2,2.3,0,4.1,1.1,5.7c0.6,0.9,1.1,1.7,1.3,2.6s-0.2,1.9-0.9,2.3c-0.9,0.4-2.1-0.2-2.9-0.5c-0.4-0.2-0.9-0.4-1.3-0.6
					c-2.5-1.2-5.4-1.6-8.2-1.6c-0.2,0-1.1-0.2-1.5-0.2s-0.6-0.1-1.1-0.3h-0.1c-0.8-0.2-1.3-0.6-2-0.9c-0.3-0.2-0.7-0.4-1.1-0.6
					c-0.1,0-0.2-0.1-0.3-0.1s-0.1,0-0.2,0c0,0-0.1-0.1-0.1-0.2c-0.2-0.2-0.3-0.5-0.6-0.6c-0.1-0.1-0.2-0.1-0.4-0.1
					c-0.1,0-0.2,0-0.3,0.1c-0.2-0.4-0.4-0.8-0.6-1.2c-0.1-0.1-0.1-0.2-0.2-0.2c-0.7-0.4-1.2-1.1-1.8-1.8c-0.5-0.6-1-1.3-1.7-1.8
					c-0.2-0.3-0.5-0.6-0.9-0.6c-0.1,0-0.2,0-0.3,0c-0.1-0.1-0.2-0.3-0.4-0.4c-0.4-0.3-1-0.5-1.5-0.6H134c-0.1,0-0.2,0-0.3,0
					c-0.2,0-0.3,0-0.4,0.1c-0.1,0-0.1-0.1-0.1-0.1c-0.2-0.1-0.5-0.2-0.7-0.2c-0.1,0-0.3,0-0.4-0.1c-0.3-0.3-0.6-0.6-1-0.6
					c-0.3,0-0.5,0.1-0.7,0.4c0,0,0,0,0,0.1c-0.3,0-0.5,0.1-0.7,0.3l0,0c-0.6,0-1.5,0.3-1.9,0.8c-0.2,0.2-0.2,0.5-0.3,0.8
					c-0.1,0-0.1,0-0.2,0.1c-0.2,0.1-0.4,0.2-0.6,0.3c-0.4,0.2-0.8,0.4-1.2,0.8c-0.1,0.1-0.1,0.1-0.1,0.2c-0.2,0.5-0.6,0.9-1.1,1.4
					c-0.3,0.3-0.7,0.6-1,1c0,0,0,0.1-0.1,0.1c-0.2,0.4-0.2,0.9,0,1.2c0.1,0.2,0.2,0.3,0.4,0.3c0,0.5,0.3,0.9,0.5,1.1
					c0.1,0.1,0.2,0.3,0.2,0.4c0,0.2,0.1,0.3,0.3,0.4c0.2,0.1,0.3,0.2,0.5,0.2c0,0,0,0.1-0.1,0.2c-0.1,0.4,0,0.8,0.3,1.2
					c0.3,0.4,0.6,0.6,1,0.6s0.7-0.2,0.9-0.3c0.1-0.1,0.2-0.1,0.3-0.2c0,0,0.1,0,0.1-0.1c0,0,0.2,0.1,0.3,0.1
					c0.2,0.1,0.4,0.2,0.7,0.2h0.1c0,0,0,0,0.1,0c0,0.2,0,0.4,0,0.6c0,0.6-0.1,1.2,0.1,1.8c-0.1-0.1-0.3-0.1-0.4-0.1c0,0,0,0-0.1,0
					h-0.1c-0.1,0-0.1,0-0.2,0c-0.1-0.1-0.3-0.2-0.5-0.2c0,0-2.9,0-3.2,0c0,0-0.2,0-0.4,0c-1,0-1.4-0.1-1.5-0.2
					c-0.5-0.4-1.4-0.8-2.2-0.8c-0.1,0-0.3,0-0.4,0c-0.8,0.1-1.1,0.7-1.2,0.9c0,0,0,0,0,0.1c-0.2,0.3-0.2,0.8-0.2,1.1
					c0,0.2,0.1,0.4,0.3,0.5c0.1,0,0.1,0.1,0.2,0.1c0,0.1,0,0.3,0.1,0.4c0.1,0.3,0.4,0.5,0.7,0.5c0.1,0,0.2,0,0.3,0
					c0.1,0.6,0.4,1.1,1,1.1h0.1c0.5,0,1.1-0.3,1.2-0.9c0.3,0.1,0.5,0.1,0.8,0.1c0.6,0.2,0.9,0.6,1.5,0.6c0.6,0.1,1,0.1,1.4,0.1
					s1,0,1.3,0.1c0.3,0.2,0.4,0.6,0.6,0.9c0.2,0.4,0.4,0.6,0.8,0.8l0,0c0.4,0.3,0.9,0.8,1.4,0.6c-0.1,0,0.6,0.5,0.6,0.6
					c0.3,0.2,0.5,0.4,0.8,0.5c0.2,0.1,0.3,0.1,0.4,0.2c0.2,0.1,0.3,0.1,0.5,0.1c0.3,0,0.6-0.2,0.7-0.3c-0.1,0.8,0,1.7,0,2.6
					c0,1.4,0,2.9-0.2,4.1v0.1c-0.1,0-0.2,0-0.4,0c-0.5,0-0.9,0.1-1.2,0.4c-0.1,0.1-0.1,0.1-0.2,0.2c-0.4,0.5-0.3,1.1-0.2,1.4v0.1
					c-0.1,0.3,0.1,0.6,0.4,0.7c0.1,0,0.2,0.1,0.3,0.1s0.3,0,0.4-0.1c0.2,0.1,0.4,0.2,0.6,0.2c0.1,0,0.2,0,0.3-0.1
					c0.1,0,0.3-0.1,0.3-0.3c0.2,0.1,0.5,0.3,0.9,0.3c0.1,0,0.2,0,0.3,0s0.2-0.1,0.3-0.1c0.3-0.2,0.5-0.5,0.5-0.8c0-0.1,0-0.3,0-0.4
					c0,0.1,0.8-0.9,0.8-1v-0.1c0.1-0.2,0.1-0.4,0.1-0.7c0-0.3,0.1-0.6,0.1-0.9c0.2-0.8,0.3-1.5,0.4-2.3c0.2-0.9,0.2-1.8,1.2-2.1
					c0.6-0.2,1.1-0.1,1.7-0.2c2.3-0.3,4.4-1.3,6.8-1.5c0.6-0.1,1.2,0,1.8,0c0.1,1.2,0.5,2.2,1,3.2c0.7,1.5,1.7,2.4,2.9,2.6
					c0,0.1-0.1,0.1-0.1,0.2c-0.1,0.3-0.3,0.6-0.4,0.9c-0.1,0.2-0.1,0.3-0.1,0.5c-0.1,0-0.3-0.1-0.5-0.1s-0.5,0.1-0.6,0.2l-0.1,0.1
					c-0.1,0.1-0.2,0.1-0.3,0.2s-0.3,0.2-0.4,0.3c-0.3,0.2-0.6,0.4-0.7,0.7l0,0c-0.2,0.3-0.2,0.6,0,0.8c0,0,0,0,0,0.1
					c0.1,0.2,0.4,0.5,0.8,0.5c0.2,0,0.4,0,0.5-0.2c0.1,0.1,0.4,0.3,0.7,0.3c0.5,0,1.1-0.3,1.2-0.3c0.5-0.3,0.8-0.8,1-1.2
					c0.2-0.4,0.3-0.7,0.5-1.1l0.1-0.1c0.2-0.3,0.5-0.5,0.8-0.6c0.1,0,0.1-0.1,0.2-0.1c0.5-0.3,0.8-1,1-1.5c0.1-0.2,0-0.4-0.1-0.6
					l-0.7-1.2c-0.5-0.7,0.1-2,0.5-2.6c-0.2,0.3,5.6,4.1,6.2,4.3c0.1,0,0.1,0.1,0.2,0.1c0,0.3,0,0.6,0.1,1c0,0.2,0,0.3,0,0.4
					c0,0.3,0,0.5,0,0.7c0,0.5-0.2,0.8-0.5,1c-0.1,0.1-0.2,0.1-0.2,0.2c-0.3,0.5-0.2,1.1,0.1,1.5c0.1,0.2,0.3,0.2,0.5,0.3l0,0
					c0.2,0,0.3-0.1,0.5-0.2c0.1-0.1,0.1-0.1,0.2-0.2c0.2,0.1,0.4,0.2,0.6,0.2c0.4,0,0.8-0.2,1.1-0.4c0.2-0.1,0.3-0.3,0.3-0.5l0.1-2
					v-0.7v-1.1c0.3-0.7,0.2-1.5-0.5-2.4c-0.1-0.1-0.2-0.2-0.4-0.3c-0.7-0.2-1.2-0.8-1.7-1.6c-0.2-0.3-0.5-0.7-0.8-1.1
					c-0.6-0.7-0.7-1.7-0.9-2.7c-0.1-0.8,0-1.6,0.3-2.3c1.2,0.7,2.8-0.6,3.4-1.6c0.9-1.6,0.3-3.6,0-4.3c-0.3-1-0.9-1.8-1.4-2.7
					c-0.8-1.3-1.5-2.5-1.4-4c0,0.4,0.5,1,0.6,1.3c0.5,0.6,1.1,1.2,1.6,1.8c0.5,0.4,2.5,2.1,2.9,0.8
					C167.1,344.7,167.1,344.5,166.7,343.9z"/>
			</g>
			<g>
				<path class="st2" d="M138.5,358.9c0.3,0,0.6,0,0.9,0c0.2,0,0.4,0,0.6,0c1-0.1,2-0.4,3-0.7c1.2-0.3,2.4-0.7,3.8-0.8
					c0.4,0,0.7,0,1,0s0.6,0,0.8,0c0,0,0.3,0,0.6-0.2c0.6-0.5,1.1-1.5,1.6-2l0,0c0.1,0,0.4,0.3,0.4,0.4c0.1,0.2,0,0.3-0.1,0.5
					c-0.2,0.4-0.6,0.6-0.8,1c-0.3,0.7-0.7,1.4-0.6,2.2c0,0.4,0.2,0.6,0.2,0.9c0.1,0.3,0.1,0.7,0.3,1c0.5,1.1,1.4,2.3,2.7,2.3
					c0,0,0,0,0.1,0c0.2,0,0,0,0.4,0c-0.1,0.6-0.5,1.2-0.7,1.8c-0.1,0.2-0.1,0.4-0.2,0.7c0,0.1,0,0.2,0,0.3c-0.1,0.3-0.2,0.3-0.4,0.3
					s-0.5-0.1-0.7-0.1s-0.3,0.1-0.4,0.3l0.2,0.2c0.3-0.1,0.4-0.1,0.5-0.1c0.4,0-1,0.6-0.7,1c0.1,0.1,0.2,0.1,0.3,0.1
					c0.3,0,0.7-0.2,0.9-0.3c0.3-0.2,0.5-0.5,0.7-0.8c0.1-0.3,0.3-0.6,0.5-0.9c0.1-0.3,0.3-0.5,0.6-0.7c0,0,0,0,0.1-0.1
					c0.3-0.2,0.6-0.4,0.9-0.6c0.3-0.3,0.5-0.7,0.6-1l-0.8-1.2c-0.2-0.8-0.2-1.6,0-2.5c0.2-0.7,0.6-1.1,1.1-1.6
					c0.6-0.6,1.2-1.1,1.7-1.8c0.8-1,1.5-2.3,1.4-3.6c0.2,0,0.3,0.2,0.5,0.3c0.2,0.1,0.5,0.1,0.7,0.1s0.4,0,0.7,0c0,0,0,0,0.1,0
					c0.3,0,0.7,0.1,1,0.1c0,0,0,0,0.1,0c0.8,0,1.7-0.8,2.1-1.4c0.6-1.1,0.4-2.6-0.1-3.7c-0.9-2.6-3.2-4.4-2.8-7.2
					c0.1-0.4,0.3-0.6,1.1-0.7c0.2,0.1,0.3,0.5,0.3,0.7c0,0.5,0.6,1.3,0.9,1.7c0.4,0.4,0.7,0.8,1.1,1.2c0.3,0.3,0.6,0.5,0.9,0.7
					c0.1,0.1,0.6,0.3,0.6,0.4c0,0,0,0,0.1,0c0,0,0.1,0,0.2-0.1c0-0.1-1.1-1.9-1.4-3.5c-0.5-1.1-1.3-1.9-2.5-1.9c-0.1,0-0.1,0-0.2,0
					c-0.7,0-1.1,0.3-1.5,0.8c-1.6,3.1,1.9,5.1,2.5,7.8c0.2,1.3-0.3,2.5-1.3,3.1c-0.4,0.2-0.8,0.3-1.2,0.3c-0.9,0-1.7-0.3-2.4-0.8
					c-0.8,0-1.5-0.9-2.4-0.9c0,0,0,0-0.1,0c-2-1-4.4-1.2-6.6-1.2c0,0-1.1-0.1-1.5-0.2c-0.4,0-0.7-0.1-1.4-0.3
					c-1.3-0.3-2.1-1.1-3.2-1.6c-0.1,0-0.2,0.1-0.2,0.1c-0.4,0-0.6-0.7-1-0.9c-0.3,0.3,0.1,1-0.3,1.2c-0.3-0.9-0.7-1.8-1.2-2.6
					c-1.4-0.9-2.2-2.6-3.6-3.7c0-0.2-0.2-0.4-0.3-0.4c0,0,0,0-0.1,0c-0.1,0.2,0.2,0.3-0.1,0.4c-0.4-0.2-0.5-0.7-0.9-0.9
					c-0.4-0.3-1.1-0.4-1.5-0.6c0,0,0,0-0.1,0s-0.2,0.1-0.1,0.1l0,0c0.3,0.1,0.1,0.3,0.1,0.5c0,0-0.7-0.6-0.8-0.6
					c-0.4-0.2-0.8-0.1-1.2-0.4c-0.2-0.1-0.3-0.4-0.5-0.4c-0.2-0.1-1,0.4-1,0.5c0.2,0.4,1,0.8,0.8,1.4c-0.3-0.1-0.5-0.4-0.7-0.8
					c-0.1-0.3-0.3-0.4-0.7-0.4c-0.5,0-1.2,0.3-1.4,0.5s-0.2,1-0.3,1.1c0,0,0,0-0.1,0s-0.1-0.1-0.2-0.2c-0.6,0.4-1.2,0.5-1.6,1.1
					c-0.4,1.1-1.5,1.7-2.2,2.6c-0.1,0.2-0.1,0.5,0,0.6h0.1c0.3,0,0.5-0.4,0.7-0.6h0.1h0.1c0.1,0,0.1,0,0.1,0.1l-0.6,0.6
					c-0.5,0.7,0.4,1.2,0.6,1.8c0.1,0.1,0.2,0.1,0.3,0.1c0.5,0,0.7-0.9,1.3-0.9c0.1,0,0.1,0,0.2,0c0.2,0,0.6,0.2,0.6,0.5
					c0,1-2.3,0.7-1.4,2c0.2,0.2,0.3,0.3,0.5,0.3c0.3,0,0.6-0.3,0.9-0.4c0.1-0.1,0.2-0.1,0.3-0.1c0.4,0,0.7,0.3,1,0.3l0,0
					c0.3-0.2,0.1-0.8,0.5-0.8l0,0c0.5,1.2-0.1,2.7,0.3,3.9v0.1c0,0.2-0.1,0.5,0,0.9c0.1,0.2,0.1,0.3,0.1,0.5c0,0.4,0.1,0.7-0.1,0.7
					c-0.1,0-0.2-0.1-0.5-0.3c-0.2-0.2-0.3-1-0.6-1.5l0,0c-0.1,0-0.3,0-0.4,0c-0.2,0-0.3,0-0.5-0.2c0,0-2.9,0-3.2,0c0,0-0.1,0-0.4,0
					c-0.5,0-1.5,0-1.9-0.3c-0.5-0.3-1.2-0.6-1.8-0.6c-0.1,0-0.2,0-0.3,0c-0.6,0.1-0.7,0.6-0.8,0.7c-0.1,0.2-0.1,0.6-0.1,0.6l0.5-0.1
					c0,0,0.2-0.3,0.6-0.3h0.1c0.3,0,0.5,0.1,0.5,0.1s0,0.3-0.3,0.4s-0.4,0.1-0.7,0.3c-0.2,0.2-0.3,0.5-0.1,0.5h0.1
					c0.2-0.1,0.3-0.2,0.5-0.2c0,0,0,0,0.1,0c0.2,0.1,0.3,0.3,0.3,0.5s0.1,0.8,0.3,0.8c0,0,0,0,0.1,0c0.3,0,0.6-0.1,0.6-0.7
					c0-0.3,0.1-0.3,0.2-0.3s0.3,0.2,0.5,0.3c0.1,0.1,0.2,0.1,0.3,0.1c0.1,0,0.2,0,0.3,0c0.2,0,0.3,0,0.4,0.1
					c0.7,0.5,1.1,0.5,1.2,0.5l0,0c1.4,0.2,1.7,0.1,3,0.3c0.6,0.1,0.5,0.6,0.7,1s0.5,0.6,0.8,0.8c0.1,0.1,0.9,0.6,0.9,0.6
					c0-0.3,0-0.8,0-1.2c0.1-0.2-0.1-0.5,0.2-0.5c0,0,0,0,0.1,0c0.5,0.4,0.1,1.1,0.3,1.7c0.2,0.7,1.2,1,1.8,1.3
					c0.1,0,0.1,0.1,0.2,0.1c0.3,0,0.3-0.4,0.6-0.5c0.1-0.1,0.2-0.2,0.4-0.2s0.4,0.1,0.4,0.3c-0.3,2.3,0.2,5-0.3,7.4
					c0,0.2-0.1,0.5-0.2,0.7c0,0.1,0,0.1,0,0.2c-0.3,0-0.6-0.1-0.9-0.1c-0.3,0-0.6,0.1-0.8,0.3c-0.4,0.3,0,0.9-0.1,1.2
					c0.1-0.2,0.4-0.3,0.3-0.5c0.2-0.3,0.5-0.6,0.8-0.6c0.4,0.6-0.5,0.6-0.4,1.1c0,0.2,0.1,0.3,0.2,0.3h0.1c0.2-0.3,0.3-0.4,0.4-0.4
					c0.3,0,0.6,0.5,1,0.5h0.1c0.5-0.4,0.1-0.7-0.2-1c0.1-0.2,0.2-0.2,0.3-0.2s0.2,0,0.3,0.1c0.6-0.3,0.8-0.9,0.9-1.5
					c0.1-0.5,0.1-1,0.1-1.6c0.1-0.5,0.2-1.1,0.3-1.6s0.3-0.9,0.2-1.4c0-0.6,0-1.2,0-1.8c0-0.3,0-0.6,0.1-0.9s0.1-0.5,0-0.7
					c-0.1-0.1-0.2-0.2-0.2-0.3c0.1-0.2,0.4,0,0.4-0.3c0-0.2-0.1-0.4-0.2-0.6c0,0,0-0.6,0.1-0.6c0.4,0.4,0.7,1,0.6,1.6
					c-0.4,0.8-0.4,1.6-0.4,2.5c0.1,0,0.1,0.1,0.2,0.1c0.2,0,0.4-0.2,0.6-0.3C138.3,359,138.4,358.9,138.5,358.9z"/>
			</g>
			<g>
				<path class="st4" d="M162.4,363.8c-0.1,0-0.1-0.1-0.2-0.1c-0.6-0.3-6.4-4.1-6.2-4.3c-0.4,0.6-1,1.9-0.5,2.6l0.7,1.2
					c0.1,0.2,0.1,0.4,0.1,0.6c-0.2,0.5-0.5,1.2-1,1.5h7.3c0-0.1,0-0.3,0-0.4C162.4,364.5,162.4,364.1,162.4,363.8z"/>
			</g>
			<g>
				<path class="st4" d="M160.3,354.7v0.1C160.3,354.8,160.3,354.8,160.3,354.7L160.3,354.7z"/>
			</g>
			<g>
				<path class="st4" d="M161.9,341L161.9,341L161.9,341C161.9,340.9,161.9,341,161.9,341z"/>
			</g>
			<g>
				<path class="st4" d="M152.6,364c-1.2-0.2-2.2-1.1-2.9-2.6c-0.5-1.1-0.9-2.1-1-3.2c-0.6,0.1-1.2,0-1.8,0
					c-2.3,0.2-4.5,1.2-6.8,1.5c-0.6,0.1-1.1,0-1.7,0.2c-1,0.3-1,1.2-1.2,2.1c-0.2,0.8-0.3,1.5-0.4,2.3c-0.1,0.3-0.1,0.6-0.1,0.9H152
					c0.1-0.3,0.3-0.7,0.4-0.9C152.5,364.2,152.5,364.1,152.6,364z"/>
			</g>
			<g>
				<path class="st2" d="M150.3,367.8L150.3,367.8c-0.2,0-0.3-0.2-0.5-0.3c0.1-0.2,0.3-0.5,0.6-0.6c0,0.1,0.1,0.1,0.1,0.2
					c-0.1,0.1-0.2,0.3-0.2,0.5C150.4,367.7,150.3,367.7,150.3,367.8z"/>
			</g>
			<g>
				<path d="M161.9,341L161.9,341C161.9,341,161.9,340.9,161.9,341L161.9,341z"/>
			</g>
			<g>
				<path d="M132.1,343.7c-0.4-0.4-0.3-1.3-0.9-1.5c0.1,0.3,0,0.7,0,1c-0.4,0.5-0.2,1.3-0.1,1.7c0.2,0,0.3-0.4,0.3-0.6
					C131.5,343.9,131.9,344,132.1,343.7z"/>
			</g>
			<g>
				<path d="M132.4,348.9c0.2-0.4-0.2-0.5-0.4-0.8c0.3-0.2-0.2-0.5-0.1-0.8c-0.3-0.7,0.6-1.5-0.1-2.1c-0.2,0.5-0.6,0.6-0.5,1.2
					C131.8,347.3,131.5,348.5,132.4,348.9z"/>
			</g>
			<g>
				<path d="M130.6,349.7c0,0.9-0.4,2.1,0.3,2.8l0.2-0.1c-0.5-0.7-0.2-1.9-0.4-2.7L130.6,349.7L130.6,349.7z"/>
			</g>
			<g>
				<path d="M132.2,352.2c0.2,0,0.2-0.2,0.2-0.4c-0.1-0.3-0.4-0.3-0.6-0.3c-0.2-0.6-0.2-1.5,0-2.1c-0.1-0.2,0-0.5-0.4-0.5l-0.1,1.8
					C131.6,351.3,131.4,352.1,132.2,352.2L132.2,352.2z"/>
			</g>
			<g>
				<path d="M131,348.6c0-0.6-0.6-1.1-0.3-1.7c0.2-0.5-0.4-0.5-0.7-0.5h-0.1v0.3c0.6,0.2,0.2,1.1,0.3,1.7c0.1,0.2,0.3,0.3,0.5,0.3
					C130.9,348.6,130.9,348.6,131,348.6z"/>
			</g>
			<g>
				<path d="M132.4,353.9c-0.2-0.1-0.1-0.5-0.3-0.5c0,0-0.1,0-0.2,0c0.4,1.1-0.6,2.5,0.2,3.4c0.3,0,0.6-0.3,0.6-0.6
					C132.1,355.7,132.5,354.8,132.4,353.9z"/>
			</g>
			<g>
				<path d="M134.1,340.7c0-0.3-0.3-0.6-0.5-0.7c-0.1,0.2-0.1,0.6,0.2,0.9C134,340.8,134.1,340.8,134.1,340.7z"/>
			</g>
			<g>
				<path d="M129,341.6c0.1-0.6,0.3-1.6-0.1-1.9c-0.1,0.9-0.1,1.6-0.3,2.4C128.6,342.1,129.1,341.9,129,341.6z"/>
			</g>
			<g>
				<path d="M129.2,343.5h-0.1c-0.1,0.2-0.5,0.2-0.3,0.5c0,0,0,0,0.1,0s0.3,0.2,0.4,0.2c0.1,0,0.1-0.1,0.2-0.3
					C129.4,343.9,129.5,343.5,129.2,343.5z"/>
			</g>
			<g>
				<path d="M127.6,342.2c-0.3,0-0.6,0.1-0.9,0.1c-0.1,0-0.2,0-0.3-0.1v0.9c0.1,0.1,0.2,0.2,0.4,0.2c0.4,0,0.8-0.6,1.2-0.9
					C127.9,342.2,127.8,342.2,127.6,342.2z"/>
			</g>
			<g>
				<path d="M135.9,344.3L135.9,344.3l0.1-0.5c-0.1-0.5,0.3-0.9,0.1-1.3c-0.2,0.3-0.8,0.7-0.6,1.2
					C135.7,344,135.6,344.3,135.9,344.3z"/>
			</g>
			<g>
				<path d="M135.2,350.5c0.4-0.4-0.6-0.8,0-1.1c0.2,0.4,0.4,0.9,0.7,1.3c0.1-0.2,0-0.3,0.1-0.5c-0.6-0.9-0.3-1.9-0.3-2.8
					c-0.2,0.1-0.2,0.3-0.1,0.4c-0.1,0.2-0.3,0.6-0.5,0.6c-0.1,0-0.1,0-0.2-0.1C134.9,349.1,134.5,350,135.2,350.5z"/>
			</g>
			<g>
				<path d="M133,343c0.5-0.4,0.2-1.1,0.3-1.6c-0.1-0.4-0.6-0.8-1-1c-0.1,0.4,0,0.9,0.1,1.3C133.3,341.7,132.9,342.6,133,343z"/>
			</g>
			<g>
				<path d="M139.8,347.8c-1.1-0.3-0.3-1.5-0.6-2.3c-0.2-0.1-0.1-0.5-0.4-0.5c0,0,0,0-0.1,0c0.6,1-0.2,2.5,0.4,3.6
					c0.3,0.3,0.1,0.7,0.7,0.7C140.6,348.9,139.6,348.4,139.8,347.8z"/>
			</g>
			<g>
				<path d="M137.4,353.1c-0.2-0.4-0.1-1,0-1.4c0.2-0.2,0.3-0.6,0.1-0.7c-0.2,0.8-0.7,1.6-0.5,2.4c0.7,0.7,1.7,1.6,1.3,2.8h0.2
					c0.2-0.4,0.1-1,0-1.5c-0.5-0.6-0.7-1.4-0.7-2.3C137.6,352.6,137.6,353.1,137.4,353.1z"/>
			</g>
			<g>
				<path d="M136.8,343.1c0.4,0,0.3-0.6,0.6-0.8c0-0.3,0.1-0.8-0.3-0.9c-0.1,0.3-0.3,0.1-0.6,0.3
					C136.7,342.1,136.6,342.6,136.8,343.1L136.8,343.1z"/>
			</g>
			<g>
				<path d="M138,345.7h-0.2c0.2,0.9-0.2,1.4-0.1,2.3c-0.1,0.4,0.2,0.6,0.5,0.7c0.1-0.1,0.4,0,0.3-0.3
					C137.7,347.7,138.3,346.6,138,345.7z"/>
			</g>
			<g>
				<path d="M136.9,348.7c0.7-1.1-0.2-2.5,0.6-3.5c-0.3-0.3,0-1-0.5-1.1l-0.2,1.4c-0.1,0.4-0.6,0.6-0.3,1c0.6,1,0,2.2,0.3,3.3
					C137.3,349.7,136.7,349.1,136.9,348.7z"/>
			</g>
			<g>
				<path d="M141,352c-0.2-0.5,0.2-0.7,0.4-1c0.2-0.7-0.2-1.5-0.5-2.2l0.2-0.1l0.4,0.7l0.1-0.1c0.2-0.2,0.2-0.5,0-0.6
					c0.2-1-0.6-1.7-0.8-2.6c-0.4,0.7,0.4,1.2,0.2,1.9c0,0.3-0.2,0.5-0.4,0.5c-0.1,0-0.1,0-0.2-0.1l0.3,1.2c-0.6,0.5-0.1,1.3-0.2,1.9
					c-0.2,0.3,0.3,0.9-0.3,1.1c0.3,0.5,0.4,1.3,0.8,1.8c0.1-0.3,0.5-0.4,0.7-0.7C142.6,352.8,141.3,352.6,141,352z"/>
			</g>
			<g>
				<path d="M139.4,344.9c0.3,0,0.3-0.4,0.4-0.5c0-0.6-0.5-0.9-0.9-1.3v0.3C139.6,343.7,139,344.5,139.4,344.9z"/>
			</g>
			<g>
				<path d="M135.1,354.2c-0.2-0.1-0.1-0.7-0.4-0.7h-0.1c0.1,0.5,0.3,1.1,0.3,1.7h0.2C135.6,355,135,354.6,135.1,354.2z"/>
			</g>
			<g>
				<path d="M134.1,351.6c-0.3,0.6-0.5,1.4-0.2,2c0.2-0.1,0.2-0.3,0.2-0.5C133.8,352.7,134.4,352.1,134.1,351.6z"/>
			</g>
			<g>
				<path d="M134.9,346.6c0-0.1,0.1-0.1,0.2-0.2c0-0.1,0.1-0.3-0.1-0.4c0.3-0.7-0.6-1.2-0.2-1.9c-0.3-0.8,0.6-1.6,0.3-2.3
					c-0.3,0.3-0.5,0.7-0.5,1.3c-0.3,0.5-0.2,1.2-0.3,1.8c-0.7,0.1,0.2,0.6-0.1,1.1c0,0.1,0.2,0.2,0.3,0.2s0.2,0,0.3-0.2L134.9,346.6
					z"/>
			</g>
			<g>
				<path d="M133.5,354.3c-0.3,0.2-0.1,0.8-0.1,1.1c0.5,0.3,0.1,1,0.4,1.4c0.2-0.3,0.3-0.8,0.1-1.1
					C134,355.2,133.4,354.9,133.5,354.3z"/>
			</g>
			<g>
				<path d="M133.5,351.6L133.5,351.6c-0.3-1.4,0.5-2.5,0.2-3.8c0,0,0,0-0.1,0c-0.3,0-0.5,0.3-0.7,0.6c0.5,1-0.1,2,0.3,3
					C133.4,351.5,133.4,351.6,133.5,351.6z"/>
			</g>
			<g>
				<path d="M135.8,356.2h-0.1c-0.2,0.1-0.1,0.3,0,0.4c0,0.6-0.5,1.3,0,1.7c0.3-0.5,0.1-1.3,0.4-1.8
					C136,356.4,136,356.2,135.8,356.2z"/>
			</g>
			<g>
				<path d="M135.5,351.6C135.5,351.6,135.4,351.6,135.5,351.6c-0.2,0-0.2,0.1-0.3,0.1c-0.1,1,0.6,1.8,0.6,2.8
					c0.5,0,0.2-0.6,0.5-0.8C135.9,353.1,135.3,352.4,135.5,351.6z"/>
			</g>
			<g>
				<path class="st2" d="M164.2,362.1c-1.4-0.4-1.9-1.8-2.8-2.9c-0.4-0.5-0.7-1.1-0.8-1.8c-0.2-0.7-0.1-1.3-0.2-2
					c-0.1-0.5,0-0.9,0-1.4c-0.2,0-0.3,0-0.5-0.1c-0.2,0.9-0.7,1.9-1.5,3c-0.3,0.4-0.7,0.8-1,1.1c-0.1,0.1-0.3,0.2-0.4,0.4l-0.4,0.4
					c0.1,0.1,0.2,0.2,0.3,0.2c0.1,0.1,0.3,0.1,0.4,0.2c0.2,0.2,0.4,0.4,0.6,0.5c0.5,0.4,1.1,0.8,1.6,1.2c0.3,0.2,0.7,0.5,1,0.7
					c0.6,0.4,1.2,0.8,1.8,1.2c0.3,0.2,0.8,0.2,0.9,0.7c0,0.5,0.1,1,0.1,1.5c0,0.2,0,0.5,0,0.7c0,0.6-0.2,1.2-0.8,1.6
					c-0.1,0.2-0.1,0.6,0,0.8c0.5-0.5,0.7-1.3,1.4-1.6c0.3,0.6-0.6,0.6-0.5,1.2c0.1,0.1,0.2,0.2,0.3,0.2c0.3,0,0.6-0.2,0.8-0.3
					l0.1-1.9V365v-1.3C164.9,363.3,164.5,362.6,164.2,362.1z"/>
			</g>
			<g>
				<path d="M139.3,354.7c-0.4-0.1-0.7-0.6-0.8-0.9s0.2-1.4,0-1.5c-0.2-0.2-0.2-0.5,0.1-0.6c0.8-0.3-0.5-0.8,0-1.3
					c0.4,0.1,0.4,0.5,0.6,0.7c0.4,0.4-0.1,1.6-0.2,2c-0.1,0.3-0.1,0.6,0,0.9C139.2,354.2,139.5,354.4,139.3,354.7z"/>
			</g>
			<g>
				<path d="M138.8,357.5c0.1-0.1,0.2,0.2,0.2,0.3c0,0.1-0.3,0.2-0.4,0.3c-0.5,0.3-0.1-0.2-0.1-0.4c-0.2,0-0.4,0-0.6,0
					c0.4-0.5,1.1-1.1,1.3-1.7c0.4,0.1,0.1,0.6,0.4,0.8c0.3-0.4,0.6-0.5,1-0.5c-0.1,0-0.7-0.9-0.8-1c-0.3-0.4-0.2-0.7,0.1-1.1
					c0,0,0.3,0.6,0.3,0.7c0.2,0.3,0.3,0.1,0.5,0.3c0.1,0.1,0.2,0.3,0.2,0.4c0.1,0.3,0.3,0.9,0.1,1.2c-0.2,0.2-0.6,0.2-0.9,0.3
					c-0.2,0.1-0.3,0.3-0.5,0.4c-0.1,0-0.3-0.1-0.4-0.1C139.1,357.4,138.9,357.4,138.8,357.5z"/>
			</g>
		</g>
	</g>
	<g>
		<g>
			<defs>
				<path id="SVGID_2_" d="M147.4,396.5c-41.6,0-75.4-33.8-75.4-75.4s33.8-75.4,75.4-75.4s75.4,33.8,75.4,75.4
					S189,396.5,147.4,396.5z M147.4,250.3c-39,0-70.8,31.8-70.8,70.8s31.7,70.8,70.8,70.8c39,0,70.8-31.8,70.8-70.8
					S186.4,250.3,147.4,250.3z"/>
			</defs>
			<clipPath id="SVGID_3_">
				<use xlink:href="#SVGID_2_"  style="overflow:visible;"/>
			</clipPath>
			<g class="st5">
				<g>
					
						<image style="overflow:visible;enable-background:new    ;" width="154" height="154" xlink:href="D3A64162.png"  transform="matrix(0.9942 0 0 0.9942 70.8538 244.5238)">
					</image>
				</g>
			</g>
		</g>
	</g>
	<g>
		
			<linearGradient id="SVGID_4_" gradientUnits="userSpaceOnUse" x1="103.5058" y1="377.0147" x2="203.5357" y2="276.9848" gradientTransform="matrix(1 0 0 -1 0 654.2202)">
			<stop  offset="0.2849" style="stop-color:#F2F2F2"/>
			<stop  offset="1" style="stop-color:#1A1A1A"/>
		</linearGradient>
		<path class="st6" d="M147.4,396.8c-41.8,0-75.7-34-75.7-75.7c0-41.8,34-75.7,75.7-75.7c41.8,0,75.7,34,75.7,75.7
			C223.1,362.8,189.2,396.8,147.4,396.8z M147.4,246c-41.4,0-75.1,33.7-75.1,75.1s33.7,75.1,75.1,75.1s75.1-33.7,75.1-75.1
			S188.8,246,147.4,246z"/>
	</g>
	<g>
		
			<linearGradient id="SVGID_5_" gradientUnits="userSpaceOnUse" x1="202.9298" y1="277.5906" x2="93.7307" y2="386.7898" gradientTransform="matrix(1 0 0 -1 0 654.2202)">
			<stop  offset="0.2849" style="stop-color:#FFFFFF"/>
			<stop  offset="1" style="stop-color:#1A1A1A"/>
		</linearGradient>
		<path class="st7" d="M147.4,392.2c-39.2,0-71.1-31.9-71.1-71.1s31.9-71.1,71.1-71.1s71.1,31.9,71.1,71.1S186.6,392.2,147.4,392.2z
			 M147.4,250.6c-38.8,0-70.4,31.6-70.4,70.4s31.6,70.4,70.4,70.4s70.4-31.6,70.4-70.4C217.9,282.2,186.3,250.6,147.4,250.6z"/>
	</g>
</g>
<g>
	<ellipse class="st8" cx="556.4" cy="294.4" rx="11.2" ry="11.5"/>
	<path class="st8" d="M479.8,351.3l-3.3,1.8c-2.5,1.3-2,3.6,0.4,4h26.2c2.8,0,3.6-3,0.4-4.2l-2.5-1.5v-66.7
		c-0.4-1.7-1.4-2.2-3.2-1.2l-22.1,10.8c-1.7,1.1-1,3,0.1,3.4l3.6,1.5c0.6,0.2,0.3,0.8,0.4,0.6V351.3z"/>
	<g>
		<path class="st8" d="M512.7,351.3l-3.3,1.8c-2.5,1.3-2,3.6,0.4,4H536c2.8,0,3.6-3,0.4-4.2l-2.5-1.5v-66.7
			c-0.4-1.7-1.4-2.2-3.2-1.2l-22.1,10.8c-1.7,1.1-1,3,0.1,3.4l3.6,1.5c0.6,0.2,0.3,0.8,0.4,0.6V351.3z"/>
	</g>
	<path class="st8" d="M567.2,307.7c-0.4-1.7-1.4-2.2-3.3-1.2l-22.1,10.8c-1.7,1.1-1,3,0.1,3.4l3.6,1.5c0.6,0.2,0.3,0.8,0.4,0.6v28.5
		l-3.3,1.8c-2.5,1.3-2,3.6,0.4,4h26.2c2.8,0,3.6-3,0.4-4.2l-2.5-1.5L567.2,307.7L567.2,307.7z"/>
	<path class="st8" d="M243.4,349.7c0.1,1.5-0.7,1.7-0.7,1.7l-3.4,1.8c-2.2,1.3-1.7,3.9,1,4c-2.6,0.1,37.3,0,37.3,0
		c15.7,0,22-12.5,22-21.3c0.2-7.9-8.3-16.3-14.6-16.5c-0.3,0-0.5-0.5,0.1-0.7c6-0.2,12.7-6.8,12.7-15.2c-0.2-8.4-6.2-16.9-21.5-17.7
		H240c-2.9,0-2.2,3.4-0.7,4c0,0,3,1.6,3.1,1.7c0.9,0.6,1,0.3,1.1,1.5v56.7H243.4z M276,344.8c-0.8,1-3.5,2.4-5.7,2.4
		c-2.8,0-5.4-0.4-5.4-2.7v-19c0.2-1.7,2.2-2.1,4.5-2.2c2.9,0.1,4.2,0.4,6.6,2.7c2.4,2.8,2,6.3,2.2,9.4
		C278.3,339.6,277,344,276,344.8z M275.7,312.1c-0.7,0.8-3.6,2.5-7.4,2.5c-1.9,0-3.6,0-3.6-2.1v-15.3c0.6-2.6,7.5-3,9.9-0.4
		c1.2,1.5,2.7,3.3,2.6,8.4C277.2,308,277.3,310.5,275.7,312.1z"/>
	<path class="st8" d="M413.3,357.1h5.5c2.8,0,3.6-3,0.4-4.2l-2.5-1.5v-32c0-4.5-1.8-8.7-4.5-11.5c-2.2-2.4-6.7-5.5-13.1-5.5
		c-6.5,0.2-9.5,1.6-13.5,4.4c-2.5,1.8-2.2,0.5-2.3-0.3v-4.3c-0.2-1.4-1.7-2.1-3.3-1.3l-21,10.3c-2.3,1.1-1.8,3.1-0.7,3.5l3.4,1.5
		c0.7,0.2,0.6,1.1,0.6,1.1v33.8l-3.5,1.8c-2.5,1.3-2,3.6,0.4,4h26.2c2.8,0,3.6-3,0.4-4.2l-2.5-1.5l-0.1-29.1
		c0.2-6.3,4.7-7.1,7.2-7.1c3.3,0,6,1.4,6.2,7.1v29l-3.3,1.8c-2.5,1.3-2,3.6,0.4,4h19.6V357.1z"/>
	<path class="st8" d="M352.2,338.1c-4.9,4.2-10.5,7.6-15,7.4c-6.7,0-11.6-3.9-13-8.4c-0.1-0.2-0.1-0.4,0.2-0.5
		c0.3,0.2,31.1-11.2,31.1-11.2c1-0.7,0.9-1.1,1-2.5c-0.5-6.6-9.4-22.4-26.8-21.6c-14.6,0.2-26.7,13.1-26.8,28.9
		c-0.5,11.4,6.8,28.4,27.3,29.1c12.8,0,23.6-8.4,27.7-17C359,338.2,353.9,336.1,352.2,338.1z M321.1,323.7c-0.6-4,0.7-12,8.3-13
		c6.9-0.3,8.8,5.4,8.7,8.3c0,0.6,0.1,0.8-0.2,1l-15.4,5.4C321.7,325.8,321.1,324.7,321.1,323.7z"/>
	<path class="st8" d="M470.2,338.1c-4.9,4.2-10.5,7.6-15,7.4c-6.7,0-11.6-3.9-13-8.4c-0.1-0.2-0.1-0.4,0.2-0.5
		c0.3,0.2,31.1-11.2,31.1-11.2c1-0.7,0.9-1.1,1-2.5c-0.5-6.6-9.4-22.4-26.8-21.6c-14.6,0.2-26.7,13.1-26.8,28.9
		c-0.5,11.4,6.8,28.4,27.4,29.1c12.8,0,23.6-8.4,27.7-17C476.9,338.2,471.8,336.1,470.2,338.1z M439.1,323.7c-0.6-4,0.7-12,8.3-13
		c6.9-0.3,8.8,5.4,8.7,8.3c0,0.6,0.1,0.8-0.2,1l-15.4,5.4C439.7,325.8,439.1,324.7,439.1,323.7z"/>
	<ellipse class="st8" cx="556.4" cy="294.4" rx="11.2" ry="11.5"/>
	<path class="st8" d="M567.2,307.7c-0.4-1.7-1.4-2.2-3.3-1.2l-22.1,10.8c-1.7,1.1-1,3,0.1,3.4l3.6,1.5c0.6,0.2,0.3,0.8,0.4,0.6v28.5
		l-3.3,1.8c-2.5,1.3-2,3.6,0.4,4h26.2c2.8,0,3.6-3,0.4-4.2l-2.5-1.5L567.2,307.7L567.2,307.7z"/>
</g>
</svg>
